<?xml version="1.0" encoding="UTF-8"?>
<!DOCTYPE svg PUBLIC "-//W3C//DTD SVG 1.1//EN" "http://www.w3.org/Graphics/SVG/1.1/DTD/svg11.dtd">
<svg version="1.1" xmlns="http://www.w3.org/2000/svg" xmlns:xlink="http://www.w3.org/1999/xlink" width="387" height="341"  xml:space="preserve" id="catchingPhysicsAllStories">
    <!-- Generated by PaintCode - http://www.paintcodeapp.com -->
    <path id="catchingPhysicsAllStories-bezier" stroke="rgb(0, 51, 102)" stroke-width="0.66" stroke-miterlimit="3.3" stroke-dasharray="10,5" stroke-dashoffset="0" fill="none" d="M 50.7,25.31 L 50.7,45.49 50.7,45.49 50.7,65.66" />
    <path id="catchingPhysicsAllStories-bezier2" stroke="rgb(0, 51, 102)" stroke-width="0.66" stroke-miterlimit="3.3" stroke-dasharray="10,5" stroke-dashoffset="0" fill="none" d="M 50.7,87.42 L 50.7,115.87 52.35,115.87 52.35,144.32" />
    <path id="catchingPhysicsAllStories-bezier3" stroke="rgb(0, 51, 102)" stroke-width="0.66" stroke-miterlimit="3.3" stroke-dasharray="10,5" stroke-dashoffset="0" fill="none" d="M 52.35,166.07 L 52.35,204.17 52.35,204.17 52.35,242.27" />
    <path id="catchingPhysicsAllStories-bezier4" stroke="rgb(0, 51, 102)" stroke-width="0.66" stroke-miterlimit="3.3" stroke-dasharray="10,5" stroke-dashoffset="0" fill="none" d="M 70.14,14.44 L 113.76,14.44 113.76,31.87 157.37,31.87" />
    <path id="catchingPhysicsAllStories-bezier5" stroke="rgb(0, 51, 102)" stroke-width="0.66" stroke-miterlimit="3.3" stroke-dasharray="10,5" stroke-dashoffset="0" fill="none" d="M 72.12,76.54 L 115.57,76.54 115.57,87.1 159.02,87.1" />
    <path id="catchingPhysicsAllStories-bezier6" stroke="rgb(0, 51, 102)" stroke-width="0.66" stroke-miterlimit="3.3" stroke-dasharray="10,5" stroke-dashoffset="0" fill="none" d="M 73.11,155.2 L 114.91,155.2 114.91,136.76 156.71,136.76" />
    <path id="catchingPhysicsAllStories-bezier7" stroke="rgb(0, 51, 102)" stroke-width="0.66" stroke-miterlimit="3.3" stroke-dasharray="10,5" stroke-dashoffset="0" fill="none" d="M 73.11,155.2 L 115.9,155.2 115.9,184.56 158.69,184.56" />
    <path id="catchingPhysicsAllStories-bezier8" stroke="rgb(0, 51, 102)" stroke-width="0.66" stroke-miterlimit="3.3" stroke-dasharray="10,5" stroke-dashoffset="0" fill="none" d="M 80.03,253.14 L 119.36,253.14 119.36,268.96 158.69,268.96" />
    <path id="catchingPhysicsAllStories-bezier9" stroke="rgb(0, 51, 102)" stroke-width="0.66" stroke-miterlimit="3.3" stroke-dasharray="10,5" stroke-dashoffset="0" fill="none" d="M 245.69,136.76 L 262.98,136.76 262.98,160.25 280.26,160.25" />
    <path id="catchingPhysicsAllStories-bezier10" stroke="rgb(0, 51, 102)" stroke-width="0.66" stroke-miterlimit="3.3" stroke-dasharray="10,5" stroke-dashoffset="0" fill="none" d="M 230.53,184.56 L 255.4,184.56 255.4,160.25 280.26,160.25" />
    <path id="catchingPhysicsAllStories-bezier11" stroke="rgb(0, 51, 102)" stroke-width="0.66" stroke-miterlimit="3.3" stroke-dasharray="10,5" stroke-dashoffset="0" fill="none" d="M 73.11,155.2 L 115.57,155.2 115.57,228.43 158.03,228.43" />
    <path id="catchingPhysicsAllStories-bezier12" stroke="rgb(0, 51, 102)" stroke-width="0.66" stroke-miterlimit="3.3" stroke-dasharray="10,5" stroke-dashoffset="0" fill="none" d="M 263.49,228.43 L 274.56,228.43 274.56,251.19 285.63,251.19" />
    <path id="catchingPhysicsAllStories-bezier13" stroke="rgb(0, 51, 102)" stroke-width="0.66" stroke-miterlimit="3.3" stroke-dasharray="10,5" stroke-dashoffset="0" fill="none" d="M 235.15,268.96 L 260.39,268.96 260.39,251.19 285.63,251.19" />
    <path id="catchingPhysicsAllStories-bezier14" stroke="rgb(0, 51, 102)" stroke-width="0.66" stroke-miterlimit="3.3" stroke-dasharray="10,5" stroke-dashoffset="0" fill="none" d="M 202.85,31.87 L 240.24,31.87 240.24,67.07 277.63,67.07" />
    <path id="catchingPhysicsAllStories-bezier15" stroke="rgb(0, 51, 102)" stroke-width="0.66" stroke-miterlimit="3.3" stroke-dasharray="10,5" stroke-dashoffset="0" fill="none" d="M 325.08,77.94 L 325.08,113.66 325.08,113.66 325.08,149.38" />
    <path id="catchingPhysicsAllStories-bezier16" stroke="rgb(0, 51, 102)" stroke-width="0.66" stroke-miterlimit="3.3" stroke-dasharray="10,5" stroke-dashoffset="0" fill="none" d="M 180.11,42.74 L 180.11,59.48 177.8,59.48 177.8,76.22" />
    <rect id="catchingPhysicsAllStories-rectangle3" stroke="rgb(0, 51, 102)" stroke-width="0.66" stroke-miterlimit="10" fill="none" x="33.23" y="5.55" width="34.95" height="17.8" rx="4.4" />
    
    <text  fill="rgb(0, 51, 102)" font-family="ComicNeueAngular-Light, 'Comic Neue Angular', sans-serif" font-size="28" x="0" y="-0" transform="translate(38.18, 9.53) scale(0.33, 0.33)"  text-anchor="middle"><tspan x="37.87" y="27">seeing</tspan></text>
    <rect id="catchingPhysicsAllStories-rectangle5" stroke="rgb(0, 51, 102)" stroke-width="0.66" stroke-miterlimit="10" fill="none" x="159.33" y="22.95" width="41.55" height="17.8" rx="4.4" />
    
    <text  fill="rgb(0, 51, 102)" font-family="ComicNeueAngular-Light, 'Comic Neue Angular', sans-serif" font-size="28" x="0" y="-0" transform="translate(164.29, 26.96) scale(0.33, 0.33)"  text-anchor="middle"><tspan x="47.47" y="27">photons</tspan></text>
    <rect id="catchingPhysicsAllStories-rectangle7" stroke="rgb(0, 51, 102)" stroke-width="0.66" stroke-miterlimit="10" fill="none" x="279.62" y="58.15" width="90.95" height="17.8" rx="4.4" />
    
    <text  fill="rgb(0, 51, 102)" font-family="ComicNeueAngular-Light, 'Comic Neue Angular', sans-serif" font-size="28" x="0" y="-0" transform="translate(284.55, 62.16) scale(0.33, 0.33)"  text-anchor="middle"><tspan x="122.58" y="27">radiation and matter</tspan></text>
    <rect id="catchingPhysicsAllStories-rectangle9" stroke="rgb(0, 51, 102)" stroke-width="0.66" stroke-miterlimit="10" fill="none" x="31.25" y="67.65" width="38.9" height="17.8" rx="4.4" />
    
    <text  fill="rgb(0, 51, 102)" font-family="ComicNeueAngular-Light, 'Comic Neue Angular', sans-serif" font-size="28" x="0" y="-0" transform="translate(36.2, 71.63) scale(0.33, 0.33)"  text-anchor="middle"><tspan x="43.64" y="27">hearing</tspan></text>
    <path id="catchingPhysicsAllStories-bezier17" stroke="rgb(0, 51, 102)" stroke-width="0.66" stroke-miterlimit="3.3" fill="none" d="M 194.61,87.1 L 194.61,91.55 C 194.61,94 192.62,95.99 190.16,95.99 L 165.44,95.99 C 162.99,95.99 160.99,94 160.99,91.55 L 160.99,82.65 C 160.99,80.19 162.99,78.2 165.44,78.2 L 190.16,78.2 C 192.62,78.2 194.61,80.19 194.61,82.65 L 194.61,87.1 Z M 194.61,87.1" />
    
    <text  fill="rgb(0, 51, 102)" font-family="ComicNeueAngular-Light, 'Comic Neue Angular', sans-serif" font-size="28" x="0" y="-0" transform="translate(165.94, 82.19) scale(0.33, 0.33)"  text-anchor="middle"><tspan x="35.57" y="27">waves</tspan></text>
    <rect id="catchingPhysicsAllStories-rectangle12" stroke="rgb(0, 51, 102)" stroke-width="0.66" stroke-miterlimit="10" fill="none" x="158.68" y="127.85" width="85.05" height="17.8" rx="4.4" />
    
    <text  fill="rgb(0, 51, 102)" font-family="ComicNeueAngular-Light, 'Comic Neue Angular', sans-serif" font-size="28" x="0" y="-0" transform="translate(163.63, 131.85) scale(0.33, 0.33)"  text-anchor="middle"><tspan x="113.04" y="27">stories of journeys</tspan></text>
    <rect id="catchingPhysicsAllStories-rectangle14" stroke="rgb(0, 51, 102)" stroke-width="0.66" stroke-miterlimit="10" fill="none" x="33.58" y="146.3" width="37.55" height="17.8" rx="4.4" />
    
    <text  fill="rgb(0, 51, 102)" font-family="ComicNeueAngular-Light, 'Comic Neue Angular', sans-serif" font-size="28" x="0" y="-0" transform="translate(38.51, 150.29) scale(0.33, 0.33)"  text-anchor="middle"><tspan x="41.86" y="27">moving</tspan></text>
    <rect id="catchingPhysicsAllStories-rectangle16" stroke="rgb(0, 51, 102)" stroke-width="0.66" stroke-miterlimit="10" fill="none" x="282.25" y="151.35" width="85.7" height="17.8" rx="4.4" />
    
    <text  fill="rgb(0, 51, 102)" font-family="ComicNeueAngular-Light, 'Comic Neue Angular', sans-serif" font-size="28" x="0" y="-0" transform="translate(287.18, 155.35) scale(0.33, 0.33)"  text-anchor="middle"><tspan x="114.77" y="27">setting trajectories</tspan></text>
    <rect id="catchingPhysicsAllStories-rectangle18" stroke="rgb(0, 51, 102)" stroke-width="0.66" stroke-miterlimit="10" fill="none" x="160.65" y="175.65" width="67.9" height="17.8" rx="4.4" />
    
    <text  fill="rgb(0, 51, 102)" font-family="ComicNeueAngular-Light, 'Comic Neue Angular', sans-serif" font-size="28" x="0" y="-0" transform="translate(165.61, 179.65) scale(0.33, 0.33)"  text-anchor="middle"><tspan x="87.89" y="27">kinds of forces</tspan></text>
    <rect id="catchingPhysicsAllStories-rectangle20" stroke="rgb(0, 51, 102)" stroke-width="0.66" stroke-miterlimit="10" fill="none" x="160" y="219.55" width="101.5" height="17.8" rx="4.4" />
    
    <text  fill="rgb(0, 51, 102)" font-family="ComicNeueAngular-Light, 'Comic Neue Angular', sans-serif" font-size="28" x="0" y="-0" transform="translate(164.95, 223.52) scale(0.33, 0.33)"  text-anchor="middle"><tspan x="138.26" y="27">something for nothing?</tspan></text>
    <rect id="catchingPhysicsAllStories-rectangle22" stroke="rgb(0, 51, 102)" stroke-width="0.66" stroke-miterlimit="10" fill="none" x="287.58" y="242.3" width="60.65" height="17.8" rx="4.4" />
    
    <text  fill="rgb(0, 51, 102)" font-family="ComicNeueAngular-Light, 'Comic Neue Angular', sans-serif" font-size="28" x="0" y="-0" transform="translate(292.55, 246.28) scale(0.33, 0.33)"  text-anchor="middle"><tspan x="76.1" y="27">setting limits</tspan></text>
    <rect id="catchingPhysicsAllStories-rectangle24" stroke="rgb(0, 51, 102)" stroke-width="0.66" stroke-miterlimit="10" fill="none" x="26.65" y="244.25" width="51.4" height="17.8" rx="4.4" />
    
    <text  fill="rgb(0, 51, 102)" font-family="ComicNeueAngular-Light, 'Comic Neue Angular', sans-serif" font-size="28" x="0" y="-0" transform="translate(31.58, 248.23) scale(0.33, 0.33)"  text-anchor="middle"><tspan x="62.3" y="27">controlling</tspan></text>
    <rect id="catchingPhysicsAllStories-rectangle26" stroke="rgb(0, 51, 102)" stroke-width="0.66" stroke-miterlimit="10" fill="none" x="160.65" y="260.05" width="72.5" height="17.8" rx="4.4" />
    
    <text  fill="rgb(0, 51, 102)" font-family="ComicNeueAngular-Light, 'Comic Neue Angular', sans-serif" font-size="28" x="0" y="-0" transform="translate(165.61, 264.05) scale(0.33, 0.33)"  text-anchor="middle"><tspan x="94.57" y="27">switching power</tspan></text>
    <rect id="catchingPhysicsAllStories-rectangle28" stroke="rgb(0, 51, 102)" stroke-width="0.66" stroke-miterlimit="10" fill="none" x="33.25" y="318.6" width="61.3" height="13.2" />
    
    <text  fill="rgb(0, 51, 102)" font-family="ComicNeueAngular-Light, 'Comic Neue Angular', sans-serif" font-size="16" x="0" y="-0" transform="translate(38.18, 320.6) scale(0.33, 0.33)"  text-anchor="middle"><tspan x="14.21" y="15">6-11</tspan></text>
    <path id="catchingPhysicsAllStories-bezier18" stroke="rgb(0, 51, 102)" stroke-width="0.66" stroke-miterlimit="3.3" fill="none" d="M 94.87,318.62 L 393.46,318.62 393.46,331.8 94.87,331.8 94.87,318.62 Z M 94.87,318.62" />
    
    <text  fill="rgb(0, 51, 102)" font-family="ComicNeueAngular-Light, 'Comic Neue Angular', sans-serif" font-size="16" x="0" y="-0" transform="translate(99.82, 320.6) scale(0.33, 0.33)"  text-anchor="middle"><tspan x="17.44" y="15">11-16</tspan></text>
</svg>
