<?xml version="1.0" encoding="UTF-8"?>
<!DOCTYPE svg PUBLIC "-//W3C//DTD SVG 1.1//EN" "http://www.w3.org/Graphics/SVG/1.1/DTD/svg11.dtd">
<svg version="1.1" xmlns="http://www.w3.org/2000/svg" xmlns:xlink="http://www.w3.org/1999/xlink" width="163" height="133"  xml:space="preserve" id="cgBatteryHands">
    <!-- Generated by PaintCode - http://www.paintcodeapp.com -->
    <g id="cgBatteryHands-group10">
        <path id="cgBatteryHands-bezier21" stroke="none" fill="rgb(71, 92, 113)" d="M 28.24,57.87 C 24.26,57.87 19.49,57.12 13.95,54.99 10.95,53.93 7.97,52.72 5.57,51.75 3.2,50.79 0.75,49.8 0.16,49.74 L 0.34,47.75 C 1.19,47.83 2.88,48.5 6.32,49.89 8.7,50.86 11.66,52.06 14.65,53.12 31.73,59.69 41.85,51.8 41.94,51.72 L 42.57,53.71 C 42.28,53.94 37.35,57.87 28.24,57.87 Z M 28.24,57.87" />
        <path id="cgBatteryHands-bezier22" stroke="none" fill="rgb(71, 92, 113)" d="M 153.89,111.43 C 150.05,109.49 141.35,93.18 139.99,85.38 139.33,81.54 136.46,76.74 133.94,72.49 131.45,68.33 129.31,64.73 129.31,62.31 L 130.8,60.74 C 130.77,63.53 133.42,67.72 135.66,71.47 138.27,75.86 141.24,80.84 141.96,85.03 143.29,92.63 151.73,108.1 154.79,109.64 L 153.89,111.43 Z M 153.89,111.43" />
        <path id="cgBatteryHands-bezier23" stroke="none" fill="rgb(71, 92, 113)" d="M 91.31,44.08 C 88.47,44.08 84.25,43.76 83.3,43.41 L 84.83,41.78 C 85.57,42.05 90.62,42.34 94.86,42.25 L 97.87,43.3 C 96.58,44.17 92.81,44.08 91.31,44.08 Z M 91.31,44.08" />
    </g>
    <g id="cgBatteryHands-group11">
        <g id="cgBatteryHands-group12">
            <path id="cgBatteryHands-bezier24" stroke="none" fill="rgb(71, 92, 113)" d="M 9.84,0.35 C 13.88,5.1 18.26,9.57 22.99,13.63 25.36,15.65 27.83,17.55 30.46,19.2 33.09,20.81 35.91,22.25 38.93,22.79 39.68,22.92 40.44,22.99 41.2,22.96 41.94,22.94 42.71,22.8 43.49,22.71 45.04,22.5 46.6,22.33 48.16,22.2 51.28,21.96 54.43,21.86 57.58,22.21 59.15,22.4 60.71,22.72 62.21,23.25 62.96,23.52 63.69,23.82 64.39,24.21 65.1,24.61 65.73,25.09 66.35,25.59 67.56,26.6 68.68,27.7 69.76,28.82 L 71.37,30.53 C 71.92,31.07 72.42,31.72 73.07,32.08 L 73.05,32.16 C 72.66,32.01 72.39,31.72 72.09,31.47 L 71.22,30.67 69.52,29.06 C 68.4,27.99 67.25,26.94 66.02,26 63.64,24.04 60.53,23.27 57.5,22.95 54.43,22.61 51.31,22.7 48.22,22.93 46.67,23.04 45.12,23.19 43.57,23.37 42.81,23.45 42.03,23.59 41.21,23.6 40.41,23.61 39.61,23.53 38.83,23.38 35.68,22.78 32.85,21.28 30.2,19.61 27.56,17.92 25.1,15.97 22.74,13.91 18.06,9.76 13.76,5.21 9.78,0.39 L 9.84,0.35 Z M 9.84,0.35" />
        </g>
        <g id="cgBatteryHands-group13">
            <path id="cgBatteryHands-bezier25" stroke="none" fill="rgb(71, 92, 113)" d="M 62.59,26.69 C 63.35,27.76 64.46,28.59 65.68,28.97 66.28,29.15 66.98,29.21 67.63,29.49 68.27,29.75 68.86,30.13 69.4,30.52 69.95,30.92 70.46,31.33 71.01,31.59 71.14,31.66 71.28,31.7 71.41,31.75 71.57,31.8 71.75,31.86 71.9,31.92 72.22,32.06 72.53,32.2 72.84,32.36 73.43,32.69 74.01,33.04 74.54,33.46 75.04,33.9 75.66,34.31 75.85,35.03 L 75.78,35.04 C 75.64,34.77 75.35,34.58 75.09,34.4 74.82,34.22 74.54,34.05 74.25,33.9 73.68,33.59 73.1,33.28 72.5,33.03 72.21,32.89 71.91,32.76 71.62,32.65 L 71.17,32.48 C 71,32.41 70.83,32.34 70.67,32.25 70.03,31.89 69.54,31.41 69.03,31 68.53,30.58 68.01,30.21 67.43,29.94 66.87,29.64 66.23,29.56 65.56,29.32 64.28,28.82 63.22,27.87 62.53,26.72 L 62.59,26.69 Z M 62.59,26.69" />
        </g>
        <g id="cgBatteryHands-group14">
            <path id="cgBatteryHands-bezier26" stroke="none" fill="rgb(71, 92, 113)" d="M 76.6,35 C 77.11,34.86 77.63,34.74 78.16,34.67 78.42,34.62 78.69,34.54 78.96,34.6 79.23,34.66 79.5,34.75 79.73,35 L 79.72,35.07 C 79.44,35.23 79.19,35.3 78.94,35.34 78.68,35.39 78.43,35.3 78.17,35.27 77.66,35.21 77.13,35.15 76.61,35.08 L 76.6,35 Z M 76.6,35" />
        </g>
        <g id="cgBatteryHands-group15">
            <path id="cgBatteryHands-bezier27" stroke="none" fill="rgb(71, 92, 113)" d="M 80.81,35.06 C 80.43,35.14 80.18,35.52 80.19,35.9 80.19,36.29 80.34,36.65 80.51,36.99 80.88,37.67 81.29,38.35 81.54,39.1 81.67,39.48 81.76,39.86 81.83,40.25 L 81.87,40.55 C 81.89,40.63 81.91,40.63 81.97,40.69 82.08,40.78 82.26,40.83 82.43,40.86 83.14,40.94 83.96,40.77 84.6,40.51 85.25,40.2 85.45,39.45 85.4,38.72 85.39,38.35 85.33,37.98 85.26,37.6 85.21,37.21 85.11,36.92 84.9,36.63 84.5,36.06 83.8,35.7 83.09,35.45 82.36,35.2 81.59,35.1 80.81,35.06 Z M 80.81,35.01 C 81.59,35.01 82.37,35.05 83.16,35.19 83.93,35.34 84.74,35.65 85.3,36.33 85.57,36.66 85.73,37.14 85.77,37.51 85.84,37.9 85.89,38.3 85.9,38.71 85.9,39.12 85.85,39.54 85.68,39.95 85.51,40.35 85.17,40.7 84.78,40.87 84.37,41.05 84,41.1 83.6,41.17 83.2,41.23 82.79,41.25 82.38,41.18 82.17,41.14 81.96,41.09 81.77,40.93 81.68,40.87 81.58,40.69 81.58,40.58 L 81.54,40.3 C 81.49,39.92 81.42,39.54 81.31,39.18 81.1,38.44 80.75,37.75 80.42,37.04 80.26,36.68 80.12,36.3 80.14,35.9 80.13,35.5 80.4,35.09 80.81,35.01 Z M 80.81,35.01" />
        </g>
        <g id="cgBatteryHands-group16">
            <path id="cgBatteryHands-bezier28" stroke="none" fill="rgb(71, 92, 113)" d="M 85.05,41.07 C 84.61,42.04 83.8,42.81 82.9,43.38 81.98,43.94 80.95,44.3 79.9,44.51 78.84,44.71 77.78,44.85 76.68,44.69 76.16,44.61 75.64,44.5 75.13,44.35 74.62,44.2 74.11,44.07 73.62,43.78 L 73.67,43.72 76.76,43.95 C 77.75,44 78.8,44.03 79.8,43.91 80.81,43.79 81.81,43.52 82.72,43.06 83.62,42.6 84.47,41.94 84.99,41.04 L 85.05,41.07 Z M 85.05,41.07" />
        </g>
        <g id="cgBatteryHands-group17">
            <path id="cgBatteryHands-bezier29" stroke="none" fill="rgb(71, 92, 113)" d="M 73.39,43.41 C 72.71,43.43 72.04,43.43 71.36,43.4 71.02,43.39 70.67,43.41 70.35,43.3 70.03,43.19 69.7,43.04 69.43,42.75 L 69.45,42.68 C 69.82,42.58 70.15,42.56 70.48,42.57 70.81,42.58 71.13,42.71 71.45,42.8 72.1,42.97 72.75,43.15 73.4,43.33 L 73.39,43.41 Z M 73.39,43.41" />
        </g>
        <g id="cgBatteryHands-group18">
            <path id="cgBatteryHands-bezier30" stroke="none" fill="rgb(71, 92, 113)" d="M 69.19,42.33 C 68.33,42.57 67.49,42.87 66.7,43.22 66.3,43.41 65.95,43.65 65.57,43.82 65.19,43.99 64.83,44.14 64.43,44.4 L 64.36,44.36 C 64.44,43.85 64.81,43.45 65.19,43.17 65.58,42.88 66.05,42.77 66.5,42.66 67.38,42.41 68.28,42.29 69.18,42.25 L 69.19,42.33 Z M 69.19,42.33" />
        </g>
        <g id="cgBatteryHands-group19">
            <path id="cgBatteryHands-bezier31" stroke="none" fill="rgb(71, 92, 113)" d="M 63.59,44.72 C 63,45.72 62.07,46.46 61.12,47.1 60.16,47.74 59.11,48.25 58.04,48.68 55.89,49.52 53.64,50.05 51.36,50.41 49.09,50.77 46.79,51 44.49,50.99 42.19,50.96 39.89,50.83 37.62,50.47 L 37.63,50.4 C 39.92,50.33 42.2,50.34 44.48,50.24 46.75,50.15 49.02,50.09 51.28,49.81 53.53,49.54 55.77,49.09 57.91,48.33 58.98,47.95 60.03,47.5 61,46.91 61.96,46.33 62.91,45.63 63.53,44.69 L 63.59,44.72 Z M 63.59,44.72" />
        </g>
        <g id="cgBatteryHands-group20">
            <path id="cgBatteryHands-bezier32" stroke="none" fill="rgb(71, 92, 113)" d="M 42.64,51.44 C 42.93,52.2 43.19,52.97 43.42,53.75 43.64,54.53 43.9,55.33 43.87,56.18 43.9,56.48 44.13,56.85 44.35,57.16 44.57,57.47 44.84,57.77 45.12,58.05 45.68,58.61 46.3,59.11 46.96,59.54 48.29,60.4 49.79,61 51.3,61.16 52.04,61.25 52.8,61.12 53.43,60.73 54.06,60.35 54.56,59.69 54.86,58.95 L 54.93,58.96 C 54.84,59.79 54.42,60.6 53.74,61.16 53.05,61.73 52.11,61.93 51.25,61.91 49.5,61.82 47.96,61 46.62,60.04 45.95,59.55 45.32,59 44.76,58.38 44.49,58.08 44.22,57.75 43.99,57.4 43.77,57.04 43.53,56.69 43.5,56.17 43.58,55.39 43.37,54.6 43.21,53.81 43.02,53.02 42.81,52.24 42.57,51.47 L 42.64,51.44 Z M 42.64,51.44" />
        </g>
        <g id="cgBatteryHands-group21">
            <path id="cgBatteryHands-bezier33" stroke="none" fill="rgb(71, 92, 113)" d="M 49.56,51.44 C 49.86,52.23 50.2,53 50.58,53.74 50.99,54.48 51.38,55.22 52.09,55.66 53.4,56.7 54.82,57.62 56.37,58.14 57.15,58.39 57.96,58.53 58.75,58.51 59.55,58.48 60.38,58.38 61.14,58.18 61.91,57.99 62.67,57.65 63.1,57.06 63.34,56.75 63.38,56.43 63.38,55.97 63.41,55.55 63.45,55.12 63.52,54.7 L 63.6,54.71 C 63.64,55.13 63.67,55.55 63.72,55.97 63.74,56.17 63.78,56.38 63.76,56.63 63.74,56.88 63.66,57.11 63.55,57.32 63.07,58.18 62.18,58.61 61.35,58.89 60.5,59.15 59.63,59.26 58.75,59.25 57.85,59.22 56.98,59.02 56.17,58.7 54.54,58.08 53.13,57.05 51.85,55.95 51.13,55.44 50.73,54.59 50.38,53.84 50.03,53.07 49.74,52.27 49.48,51.47 L 49.56,51.44 Z M 49.56,51.44" />
        </g>
        <g id="cgBatteryHands-group22">
            <path id="cgBatteryHands-bezier34" stroke="none" fill="rgb(71, 92, 113)" d="M 59.43,49.13 C 59.38,50.38 59.34,51.89 60.57,52.51 61.58,53.28 62.82,53.7 64.07,53.78 65.35,53.92 66.47,53.47 67.6,52.88 68.16,52.61 68.69,52.26 69.22,51.89 69.48,51.71 69.73,51.51 69.98,51.3 70.21,51.1 70.49,50.88 70.61,50.62 L 70.68,50.62 C 70.53,51.34 70,51.8 69.55,52.29 69.08,52.76 68.54,53.17 67.97,53.54 67.39,53.89 66.76,54.17 66.08,54.33 65.39,54.49 64.67,54.47 64.01,54.38 62.67,54.22 61.36,53.68 60.33,52.8 60.08,52.57 59.85,52.37 59.62,52.07 59.42,51.76 59.35,51.42 59.3,51.09 59.22,50.43 59.26,49.77 59.36,49.12 L 59.43,49.13 Z M 59.43,49.13" />
        </g>
        <g id="cgBatteryHands-group23">
            <path id="cgBatteryHands-bezier35" stroke="none" fill="rgb(71, 92, 113)" d="M 65.72,44.68 C 66.48,45.76 67.23,46.85 67.91,47.99 68.07,48.29 68.23,48.57 68.36,48.92 68.43,49.16 68.42,49.17 68.51,49.28 68.6,49.37 68.72,49.45 68.85,49.52 69.37,49.79 70.02,49.88 70.63,49.85 71.24,49.82 71.85,49.64 72.34,49.34 72.87,49.01 73.37,48.62 73.86,48.2 74.37,47.8 74.83,47.35 75.3,46.9 75.54,46.68 75.77,46.45 75.99,46.21 76.21,45.98 76.46,45.73 76.56,45.46 L 76.64,45.45 C 76.53,46.18 76.07,46.69 75.7,47.25 75.3,47.79 74.84,48.28 74.36,48.76 73.87,49.22 73.33,49.65 72.72,49.98 72.06,50.32 71.34,50.46 70.64,50.45 69.94,50.44 69.24,50.31 68.6,49.95 68.45,49.85 68.29,49.74 68.16,49.58 68.1,49.49 68.04,49.42 68,49.28 67.98,49.21 67.98,49.21 67.97,49.14 67.96,49.11 67.96,49.08 67.95,49.04 67.86,48.76 67.72,48.46 67.58,48.17 67,47 66.33,45.86 65.66,44.73 L 65.72,44.68 Z M 65.72,44.68" />
        </g>
        <g id="cgBatteryHands-group24">
            <path id="cgBatteryHands-bezier36" stroke="none" fill="rgb(71, 92, 113)" d="M 69.43,48.73 C 70.06,48.5 70.67,48.24 71.25,47.93 71.54,47.76 71.82,47.59 72.08,47.41 72.35,47.23 72.6,47.04 72.76,46.74 L 72.78,46.75 C 72.76,47.11 72.48,47.39 72.23,47.61 71.95,47.81 71.65,47.97 71.34,48.1 70.73,48.38 70.09,48.59 69.44,48.76 L 69.43,48.73 Z M 69.43,48.73" />
        </g>
        <g id="cgBatteryHands-group25">
            <path id="cgBatteryHands-bezier37" stroke="none" fill="rgb(71, 92, 113)" d="M 60.68,51.19 C 61.37,50.97 62.05,50.7 62.69,50.37 63,50.2 63.31,50.02 63.6,49.82 63.89,49.63 64.17,49.41 64.38,49.12 L 64.41,49.13 C 64.31,49.5 64.03,49.78 63.74,50.02 63.44,50.24 63.11,50.41 62.77,50.55 62.1,50.85 61.4,51.06 60.69,51.22 L 60.68,51.19 Z M 60.68,51.19" />
        </g>
        <g id="cgBatteryHands-group26">
            <path id="cgBatteryHands-bezier38" stroke="none" fill="rgb(71, 92, 113)" d="M 67.81,46.71 C 68.29,46.65 68.76,46.54 69.19,46.37 69.62,46.2 70.02,45.95 70.19,45.61 70.28,45.44 70.3,45.28 70.28,45.07 70.29,44.94 70.27,44.84 70.26,44.75 70.26,44.66 70.26,44.56 70.24,44.46 70.19,44.08 70.05,43.72 69.68,43.37 L 69.7,43.29 C 70.25,43.24 70.8,43.73 70.96,44.28 71.04,44.54 71.07,44.9 71.02,45.12 70.99,45.4 70.88,45.71 70.69,45.94 70.32,46.43 69.78,46.62 69.3,46.73 68.8,46.82 68.3,46.83 67.81,46.78 L 67.81,46.71 Z M 67.81,46.71" />
        </g>
        <g id="cgBatteryHands-group27">
            <path id="cgBatteryHands-bezier39" stroke="none" fill="rgb(71, 92, 113)" d="M 52.25,54.11 C 53.16,53.87 54.06,53.56 54.91,53.18 55.34,52.98 55.75,52.77 56.14,52.52 56.54,52.28 56.91,52.01 57.18,51.61 L 57.2,51.63 C 57.05,52.1 56.66,52.45 56.28,52.73 55.88,53 55.44,53.2 54.99,53.37 54.1,53.71 53.18,53.96 52.25,54.13 L 52.25,54.11 Z M 52.25,54.11" />
        </g>
        <g id="cgBatteryHands-group28">
            <path id="cgBatteryHands-bezier40" stroke="none" fill="rgb(71, 92, 113)" d="M 45.25,56.11 C 46.03,56.09 46.81,56 47.56,55.82 47.93,55.71 48.29,55.59 48.62,55.42 48.97,55.27 49.28,55.06 49.51,54.74 L 49.53,54.75 C 49.42,55.15 49.08,55.44 48.74,55.65 48.38,55.84 47.99,55.95 47.6,56.01 46.82,56.16 46.03,56.18 45.25,56.13 L 45.25,56.11 Z M 45.25,56.11" />
        </g>
        <g id="cgBatteryHands-group29">
            <path id="cgBatteryHands-bezier41" stroke="none" fill="rgb(71, 92, 113)" d="M 29.8,54.78 C 26.73,53.54 23.69,52.24 20.75,50.69 20.02,50.29 19.28,49.91 18.59,49.37 17.93,48.85 17.32,48.27 16.73,47.69 L 15.01,45.93 C 14.42,45.36 13.84,44.78 13.11,44.41 L 13.13,44.34 C 13.97,44.52 14.69,45.04 15.35,45.53 16.02,46.04 16.62,46.61 17.25,47.15 17.85,47.7 18.45,48.26 19.06,48.8 19.64,49.31 20.35,49.74 21.04,50.17 22.46,51 23.92,51.77 25.39,52.51 26.85,53.27 28.33,54 29.82,54.71 L 29.8,54.78 Z M 29.8,54.78" />
        </g>
        <g id="cgBatteryHands-group30">
            <path id="cgBatteryHands-bezier42" stroke="none" fill="rgb(71, 92, 113)" d="M 14.93,43.41 C 13.5,43.18 12.07,43.02 10.65,42.93 9.93,42.9 9.22,42.93 8.52,42.88 L 6.38,42.75 6.36,42.68 C 7.03,42.31 7.79,42.18 8.52,42.13 9.26,42.08 9.99,42.22 10.71,42.34 12.15,42.56 13.56,42.9 14.94,43.33 L 14.93,43.41 Z M 14.93,43.41" />
        </g>
        <g id="cgBatteryHands-group31">
            <path id="cgBatteryHands-bezier43" stroke="none" fill="rgb(71, 92, 113)" d="M 76.2,35.68 C 76.23,36.55 76.22,37.42 76.15,38.28 76.12,38.72 76.07,39.15 75.98,39.58 75.86,40 75.74,40.46 75.38,40.75 L 75.37,40.74 C 75.59,40.37 75.66,39.95 75.73,39.53 75.82,39.11 75.88,38.69 75.95,38.26 76.06,37.41 76.13,36.55 76.17,35.68 L 76.2,35.68 76.2,35.68 Z M 76.2,35.68" />
        </g>
        <g id="cgBatteryHands-group32">
            <path id="cgBatteryHands-bezier44" stroke="none" fill="rgb(71, 92, 113)" d="M 77.2,36.12 C 77.32,36.89 77.42,37.66 77.47,38.44 77.5,38.82 77.52,39.21 77.49,39.61 77.45,39.99 77.4,40.4 77.2,40.75 L 77.18,40.74 C 77.24,40.36 77.25,39.98 77.25,39.6 L 77.27,38.44 C 77.26,37.67 77.23,36.9 77.18,36.12 L 77.2,36.12 Z M 77.2,36.12" />
        </g>
        <g id="cgBatteryHands-group33">
            <path id="cgBatteryHands-bezier45" stroke="none" fill="rgb(71, 92, 113)" d="M 64.69,28.45 C 64.41,28.19 64.18,27.89 63.99,27.55 63.88,27.39 63.75,27.21 63.76,26.99 63.78,26.79 63.85,26.51 64.12,26.39 L 64.19,26.42 C 64.33,26.64 64.43,26.73 64.5,26.88 64.57,27.01 64.53,27.18 64.55,27.36 64.6,27.69 64.67,28.05 64.75,28.42 L 64.69,28.45 Z M 64.69,28.45" />
        </g>
        <g id="cgBatteryHands-group34">
            <path id="cgBatteryHands-bezier46" stroke="none" fill="rgb(71, 92, 113)" d="M 97.14,35.7 C 96.68,36.03 96.2,36.35 95.7,36.62 95.44,36.75 95.19,36.88 94.88,36.95 94.82,36.97 94.69,36.98 94.66,36.99 94.66,37 94.66,37 94.63,37.04 94.58,37.12 94.55,37.25 94.53,37.38 94.44,37.91 94.42,38.52 94.11,39.07 93.82,39.62 93.23,40.04 92.63,40.02 L 92.62,39.97 C 93.13,39.7 93.48,39.33 93.66,38.85 93.86,38.38 93.99,37.85 94.14,37.29 94.18,37.14 94.22,37 94.32,36.84 94.37,36.76 94.49,36.66 94.62,36.65 94.74,36.64 94.74,36.64 94.82,36.63 95.07,36.6 95.34,36.5 95.59,36.39 96.11,36.19 96.62,35.94 97.11,35.66 L 97.14,35.7 Z M 97.14,35.7" />
        </g>
        <g id="cgBatteryHands-group35">
            <path id="cgBatteryHands-bezier47" stroke="none" fill="rgb(71, 92, 113)" d="M 93.73,37.27 C 92.93,37.81 92.12,38.36 91.43,39 91.26,39.16 91.1,39.33 91,39.51 90.9,39.73 90.89,39.65 91.01,39.86 91.16,40.15 91.68,40.06 92.18,40.07 L 92.19,40.11 C 91.98,40.24 91.77,40.36 91.5,40.42 91.24,40.5 90.87,40.43 90.63,40.18 90.58,40.12 90.52,40.04 90.5,40 90.48,39.97 90.39,39.81 90.4,39.71 90.41,39.48 90.51,39.35 90.59,39.23 90.77,39 90.97,38.85 91.17,38.69 91.96,38.09 92.83,37.64 93.71,37.22 L 93.73,37.27 Z M 93.73,37.27" />
        </g>
        <g id="cgBatteryHands-group36">
            <path id="cgBatteryHands-bezier48" stroke="none" fill="rgb(71, 92, 113)" d="M 90.95,40.73 C 91.07,40.86 91.13,41.02 91.22,41.13 91.29,41.26 91.37,41.37 91.46,41.44 91.55,41.51 91.66,41.49 91.7,41.57 91.75,41.66 91.83,41.76 91.96,41.98 L 91.96,42.06 C 91.79,42.24 91.57,42.3 91.35,42.24 91.13,42.18 91.01,41.94 90.95,41.76 90.88,41.57 90.86,41.39 90.86,41.23 90.86,41.06 90.9,40.91 90.88,40.77 L 90.95,40.73 Z M 90.95,40.73" />
        </g>
        <g id="cgBatteryHands-group37">
            <path id="cgBatteryHands-bezier49" stroke="none" fill="rgb(71, 92, 113)" d="M 94.9,42.12 C 96.07,42.75 97.44,43.01 98.69,42.79 99.31,42.67 99.9,42.37 100.52,42.18 101.12,41.96 101.78,41.81 102.24,41.38 L 102.32,41.39 C 102.27,41.8 101.97,42.06 101.71,42.3 101.43,42.54 101.12,42.71 100.81,42.87 100.18,43.17 99.49,43.34 98.76,43.38 97.33,43.49 95.94,43.01 94.85,42.19 L 94.9,42.12 Z M 94.9,42.12" />
        </g>
        <g id="cgBatteryHands-group38">
            <path id="cgBatteryHands-bezier50" stroke="none" fill="rgb(71, 92, 113)" d="M 99.71,39.4 C 100.42,39.79 101.19,40.07 101.97,40.24 102.75,40.41 103.55,40.46 104.32,40.34 105.07,40.22 105.81,39.85 106.57,39.63 107.32,39.37 108.08,39.13 108.78,38.73 L 108.84,38.77 C 108.38,39.53 107.59,39.96 106.84,40.33 106.07,40.66 105.26,40.88 104.38,40.94 102.65,41.04 101,40.41 99.67,39.47 L 99.71,39.4 Z M 99.71,39.4" />
        </g>
        <g id="cgBatteryHands-group39">
            <path id="cgBatteryHands-bezier51" stroke="none" fill="rgb(71, 92, 113)" d="M 104.82,35.86 C 105.46,36.38 106.17,36.83 106.92,37.17 107.68,37.48 108.44,37.73 109.27,37.83 L 109.27,37.85 C 108.43,38.02 107.56,37.76 106.83,37.35 106.08,36.96 105.4,36.46 104.8,35.88 L 104.82,35.86 Z M 104.82,35.86" />
        </g>
        <g id="cgBatteryHands-group40">
            <path id="cgBatteryHands-bezier52" stroke="none" fill="rgb(71, 92, 113)" d="M 109.72,35.24 C 110.51,37.95 111.68,40.57 113.28,42.88 114.08,44.03 115.01,45.09 116.1,45.95 117.2,46.8 118.41,47.55 119.62,48.26 122.05,49.69 124.58,50.97 127.01,52.45 128.22,53.2 129.43,53.96 130.57,54.81 131.14,55.24 131.7,55.69 132.23,56.19 132.72,56.7 133.25,57.24 133.47,57.94 L 133.4,57.97 C 133.09,57.34 132.55,56.88 132,56.45 131.45,56.01 130.87,55.62 130.28,55.24 129.09,54.49 127.87,53.78 126.63,53.1 124.17,51.71 121.72,50.29 119.31,48.78 118.1,48.02 116.91,47.24 115.79,46.32 114.68,45.4 113.75,44.28 112.97,43.09 111.42,40.68 110.35,38.01 109.65,35.26 L 109.72,35.24 Z M 109.72,35.24" />
        </g>
        <g id="cgBatteryHands-group41">
            <path id="cgBatteryHands-bezier53" stroke="none" fill="rgb(71, 92, 113)" d="M 97.61,36.11 C 97.86,34.85 98.63,33.67 99.78,32.98 100.98,32.39 102.15,32 103.31,31.46 104.47,30.94 105.59,30.35 106.72,29.81 107.85,29.26 108.99,28.72 109.91,27.85 L 109.97,27.89 C 109.35,29.09 108.15,29.8 107.07,30.47 105.95,31.12 104.74,31.56 103.54,32.01 102.36,32.48 101.08,32.84 99.96,33.31 98.87,33.85 98.03,34.92 97.68,36.13 L 97.61,36.11 Z M 97.61,36.11" />
        </g>
        <g id="cgBatteryHands-group42">
            <path id="cgBatteryHands-bezier54" stroke="none" fill="rgb(71, 92, 113)" d="M 110.28,27.02 C 110.69,26.05 111.67,25.43 112.68,25.24 113.71,25.02 114.76,25.24 115.76,25.37 117.78,25.62 119.81,25.75 121.84,25.68 122.35,25.67 122.86,25.64 123.36,25.59 123.6,25.57 123.87,25.53 124.13,25.53 124.42,25.53 124.68,25.56 124.94,25.61 125.97,25.81 126.94,26.16 127.91,26.49 129.84,27.18 131.73,27.93 133.68,28.46 134.66,28.72 135.65,28.93 136.62,28.95 137.58,28.95 138.59,28.75 139.57,28.54 141.54,28.11 143.5,27.56 145.44,26.95 147.39,26.37 149.3,25.69 151.18,24.92 152.12,24.54 153.05,24.12 153.94,23.65 154.83,23.17 155.74,22.67 156.41,21.91 L 156.47,21.95 C 155.85,22.79 154.97,23.38 154.12,23.94 153.24,24.48 152.32,24.96 151.4,25.4 149.54,26.28 147.61,27 145.67,27.67 143.72,28.31 141.74,28.87 139.72,29.27 138.7,29.45 137.69,29.64 136.6,29.62 135.53,29.57 134.52,29.32 133.52,29.04 131.54,28.46 129.65,27.67 127.74,26.95 126.79,26.6 125.83,26.24 124.86,26.03 124.62,25.99 124.37,25.95 124.15,25.94 123.9,25.94 123.66,25.98 123.4,26 122.88,26.04 122.37,26.05 121.85,26.06 119.8,26.07 117.75,25.9 115.73,25.59 114.72,25.44 113.71,25.2 112.71,25.39 111.73,25.54 110.77,26.13 110.35,27.05 L 110.28,27.02 Z M 110.28,27.02" />
        </g>
        <g id="cgBatteryHands-group43">
            <path id="cgBatteryHands-bezier55" stroke="none" fill="rgb(71, 92, 113)" d="M 137.65,31.99 C 137.97,34.6 138.31,37.2 138.69,39.79 138.89,41.09 139.12,42.38 139.3,43.67 139.47,44.97 139.65,46.26 139.9,47.55 L 139.85,47.57 C 139.32,46.35 139.07,45.04 138.81,43.75 138.56,42.46 138.44,41.15 138.29,39.84 138,37.23 137.78,34.62 137.6,32 L 137.65,31.99 Z M 137.65,31.99" />
        </g>
        <g id="cgBatteryHands-group44">
            <path id="cgBatteryHands-bezier56" stroke="none" fill="rgb(71, 92, 113)" d="M 136.27,35.25 C 136.16,36.98 136.22,38.72 136.39,40.45 136.54,42.17 136.82,43.88 137.25,45.56 137.67,47.23 138.27,48.85 138.96,50.42 139.64,52 140.51,53.5 141.52,54.92 L 141.48,54.95 C 140.25,53.7 139.29,52.21 138.51,50.64 137.74,49.05 137.24,47.36 136.86,45.65 136.11,42.23 135.9,38.71 136.23,35.24 L 136.27,35.25 Z M 136.27,35.25" />
        </g>
        <g id="cgBatteryHands-group45">
            <path id="cgBatteryHands-bezier57" stroke="none" fill="rgb(71, 92, 113)" d="M 132.38,64.02 C 133.78,64.24 135.21,64.21 136.61,64.07 138.02,63.93 139.41,63.67 140.76,63.29 142.12,62.91 143.42,62.38 144.73,61.88 146.05,61.4 147.33,60.81 148.67,60.28 L 148.71,60.34 C 147.58,61.25 146.32,61.95 145.02,62.57 143.71,63.17 142.31,63.56 140.91,63.87 139.5,64.18 138.07,64.38 136.64,64.44 135.2,64.48 133.76,64.42 132.36,64.09 L 132.38,64.02 Z M 132.38,64.02" />
        </g>
        <g id="cgBatteryHands-group46">
            <path id="cgBatteryHands-bezier58" stroke="none" fill="rgb(71, 92, 113)" d="M 145.64,57.92 C 147.04,58.57 148.53,59.04 150.05,59.15 150.8,59.2 151.56,59.13 152.24,58.87 152.95,58.6 153.64,58.26 154.34,57.93 155.72,57.25 157.08,56.5 158.52,55.91 159.24,55.63 159.97,55.33 160.72,55.11 161.47,54.93 162.27,54.62 163.08,54.9 L 163.05,54.97 C 162.68,54.91 162.31,55.04 161.96,55.17 161.6,55.29 161.25,55.44 160.91,55.6 160.21,55.92 159.51,56.24 158.83,56.59 157.44,57.27 156.01,57.87 154.58,58.47 153.87,58.78 153.15,59.08 152.4,59.33 151.62,59.59 150.8,59.61 150.01,59.52 148.44,59.31 146.97,58.73 145.61,57.99 L 145.64,57.92 Z M 145.64,57.92" />
        </g>
        <g id="cgBatteryHands-group47">
            <path id="cgBatteryHands-bezier59" stroke="none" fill="rgb(71, 92, 113)" d="M 108.82,39.99 C 109.44,40.33 110.04,40.7 110.61,41.12 110.9,41.33 111.17,41.55 111.43,41.81 111.68,42.06 111.93,42.33 112.05,42.69 L 112.06,42.72 112.04,42.74 C 111.56,43.47 110.89,43.97 110.19,44.43 109.83,44.65 109.45,44.84 109.02,44.93 108.6,45.04 108.1,44.97 107.75,44.69 107.03,44.17 106.69,43.25 106.77,42.4 106.83,41.53 107.33,40.77 107.97,40.25 L 107.99,40.26 C 107.41,40.85 107.01,41.61 106.98,42.41 106.95,43.2 107.27,44.03 107.9,44.49 108.53,45 109.41,44.66 110.09,44.26 110.77,43.85 111.47,43.33 111.92,42.69 L 111.91,42.73 C 111.82,42.42 111.59,42.14 111.35,41.89 111.11,41.63 110.84,41.4 110.56,41.19 110.01,40.75 109.42,40.36 108.81,40.01 L 108.82,39.99 Z M 108.82,39.99" />
        </g>
        <g id="cgBatteryHands-group48">
            <path id="cgBatteryHands-bezier60" stroke="none" fill="rgb(71, 92, 113)" d="M 111.55,44.22 C 110.83,45.69 110.04,47.13 109.09,48.48 108.6,49.14 108.1,49.81 107.34,50.3 106.94,50.55 106.46,50.6 106.03,50.59 105.59,50.58 105.17,50.52 104.75,50.42 103.12,50.02 101.56,49.29 100.27,48.18 99.65,47.62 99.07,46.93 98.68,46.21 98.47,45.84 98.28,45.47 98.13,45.07 98.06,44.87 98,44.66 97.97,44.45 97.95,44.24 97.92,44 98.08,43.8 L 98.13,43.86 C 98.04,44.2 98.25,44.6 98.44,44.93 98.63,45.27 98.86,45.6 99.11,45.92 99.6,46.57 100.11,47.12 100.75,47.6 102,48.55 103.39,49.39 104.91,49.84 105.66,50.04 106.47,50.2 107.1,49.88 107.75,49.51 108.29,48.88 108.8,48.25 109.8,46.99 110.68,45.6 111.49,44.19 L 111.55,44.22 Z M 111.55,44.22" />
        </g>
        <g id="cgBatteryHands-group49">
            <path id="cgBatteryHands-bezier61" stroke="none" fill="rgb(71, 92, 113)" d="M 104.43,42.04 C 104.23,42.57 103.99,43.1 103.71,43.6 103.57,43.85 103.46,44.14 103.22,44.33 102.99,44.5 102.68,44.73 102.28,44.62 L 102.27,44.54 C 102.44,44.29 102.51,44.05 102.66,43.83 102.8,43.6 103.03,43.44 103.22,43.24 L 104.36,42 104.43,42.04 Z M 104.43,42.04" />
        </g>
        <g id="cgBatteryHands-group50">
            <path id="cgBatteryHands-bezier62" stroke="none" fill="rgb(71, 92, 113)" d="M 106.51,48.63 C 106.07,48 105.6,47.39 105.09,46.83 104.83,46.56 104.56,46.29 104.27,46.05 104,45.8 103.7,45.58 103.34,45.47 L 103.34,45.44 C 103.74,45.41 104.12,45.63 104.43,45.86 104.74,46.11 105,46.4 105.24,46.7 105.73,47.3 106.15,47.95 106.53,48.62 L 106.51,48.63 Z M 106.51,48.63" />
        </g>
        <g id="cgBatteryHands-group51">
            <path id="cgBatteryHands-bezier63" stroke="none" fill="rgb(71, 92, 113)" d="M 104.29,50.79 C 104.26,51.63 104.33,52.51 104.68,53.26 104.85,53.64 105.15,53.92 105.46,54.21 105.77,54.5 106.1,54.76 106.44,55 107.13,55.46 107.91,55.8 108.71,55.86 109.52,55.94 110.3,55.68 111.07,55.35 111.83,55 112.57,54.59 113.31,54.16 113.68,53.95 114.05,53.74 114.44,53.54 114.85,53.36 115.21,53.12 115.79,53.08 115.98,53.1 116.38,52.81 116.67,52.56 116.98,52.3 117.27,51.99 117.57,51.7 117.87,51.4 118.15,51.08 118.43,50.76 118.69,50.44 119,50.1 119.15,49.74 L 119.22,49.74 C 119.02,50.64 118.47,51.32 117.97,52.04 117.72,52.39 117.42,52.72 117.11,53.04 116.95,53.19 116.79,53.35 116.6,53.49 116.42,53.62 116.17,53.81 115.84,53.83 115.55,53.84 115.15,54.05 114.79,54.23 L 113.66,54.81 C 112.89,55.2 112.11,55.58 111.3,55.9 110.49,56.21 109.57,56.47 108.66,56.34 107.76,56.23 106.93,55.82 106.23,55.3 105.87,55.03 105.55,54.74 105.25,54.42 104.96,54.12 104.64,53.78 104.48,53.35 104.15,52.52 104.13,51.64 104.21,50.78 L 104.29,50.79 Z M 104.29,50.79" />
        </g>
        <g id="cgBatteryHands-group52">
            <path id="cgBatteryHands-bezier64" stroke="none" fill="rgb(71, 92, 113)" d="M 115.22,51.96 C 114.63,51.56 114.06,51.12 113.53,50.64 113.26,50.4 113,50.14 112.77,49.85 112.58,49.55 112.36,49.21 112.38,48.83 L 112.41,48.83 C 112.52,49.16 112.74,49.43 112.97,49.7 113.19,49.97 113.43,50.23 113.67,50.49 114.16,51 114.69,51.48 115.24,51.94 L 115.22,51.96 Z M 115.22,51.96" />
        </g>
        <g id="cgBatteryHands-group53">
            <path id="cgBatteryHands-bezier65" stroke="none" fill="rgb(71, 92, 113)" d="M 113.8,61.6 C 113.21,61.2 112.64,60.76 112.11,60.27 111.84,60.04 111.58,59.78 111.36,59.49 111.16,59.19 110.94,58.85 110.97,58.47 L 110.99,58.46 C 111.11,58.8 111.33,59.07 111.55,59.33 111.77,59.6 112.01,59.87 112.25,60.13 112.74,60.64 113.27,61.12 113.82,61.58 L 113.8,61.6 Z M 113.8,61.6" />
        </g>
        <g id="cgBatteryHands-group54">
            <path id="cgBatteryHands-bezier66" stroke="none" fill="rgb(71, 92, 113)" d="M 122.22,63.88 C 121.63,63.48 121.06,63.04 120.53,62.55 120.26,62.31 120,62.06 119.77,61.77 119.58,61.47 119.36,61.13 119.38,60.75 L 119.41,60.74 C 119.52,61.08 119.74,61.35 119.97,61.61 120.19,61.88 120.43,62.15 120.67,62.41 121.16,62.92 121.69,63.4 122.24,63.86 L 122.22,63.88 Z M 122.22,63.88" />
        </g>
        <g id="cgBatteryHands-group55">
            <path id="cgBatteryHands-bezier67" stroke="none" fill="rgb(71, 92, 113)" d="M 109.72,57.14 C 109.21,57.95 108.92,59.02 109.36,59.87 109.81,60.71 110.56,61.39 111.37,61.88 112.18,62.37 113.16,62.68 114.02,62.4 114.87,62.09 115.67,61.46 116.43,60.87 117.19,60.26 117.92,59.6 118.66,58.95 119.05,58.63 119.39,58.3 119.86,57.99 120.23,57.82 120.5,57.42 120.81,57.05 121.44,56.31 122.01,55.51 122.63,54.73 123.26,53.97 123.83,53.15 124.62,52.51 L 124.67,52.57 C 124.35,52.93 124.1,53.36 123.84,53.78 L 123.05,55.03 C 122.53,55.87 121.99,56.69 121.4,57.51 121.09,57.89 120.8,58.36 120.27,58.65 119.91,58.88 119.52,59.21 119.14,59.52 118.37,60.13 117.6,60.76 116.79,61.35 115.98,61.93 115.18,62.53 114.15,62.87 113.08,63.16 112.01,62.74 111.17,62.2 110.34,61.63 109.6,60.89 109.15,59.97 108.72,58.98 109.1,57.9 109.66,57.1 L 109.72,57.14 Z M 109.72,57.14" />
        </g>
        <g id="cgBatteryHands-group56">
            <path id="cgBatteryHands-bezier68" stroke="none" fill="rgb(71, 92, 113)" d="M 120.8,55.59 C 120.38,55.14 119.94,54.7 119.49,54.29 L 118.79,53.7 C 118.56,53.5 118.34,53.3 118.06,53.18 L 118.06,53.15 C 118.4,53.14 118.69,53.33 118.95,53.5 119.2,53.69 119.42,53.91 119.63,54.14 120.06,54.6 120.45,55.08 120.82,55.57 L 120.8,55.59 Z M 120.8,55.59" />
        </g>
        <g id="cgBatteryHands-group57">
            <path id="cgBatteryHands-bezier69" stroke="none" fill="rgb(71, 92, 113)" d="M 117.51,61.8 C 117.12,62.9 117.26,64.18 117.97,65.06 118.66,65.94 119.74,66.49 120.84,66.68 121.95,66.86 123.08,66.65 124.18,66.39 125.29,66.13 126.38,65.74 127.48,65.28 L 127.52,65.34 C 126.63,66.15 125.54,66.74 124.38,67.12 123.22,67.49 121.93,67.55 120.72,67.26 119.51,66.97 118.38,66.31 117.67,65.27 116.96,64.22 116.95,62.85 117.44,61.77 L 117.51,61.8 Z M 117.51,61.8" />
        </g>
        <g id="cgBatteryHands-group58">
            <path id="cgBatteryHands-bezier70" stroke="none" fill="rgb(71, 92, 113)" d="M 125.42,59.77 C 124.68,59.54 123.96,59.25 123.27,58.87 122.92,58.69 122.59,58.48 122.29,58.21 122.01,57.94 121.73,57.58 121.73,57.17 L 121.76,57.17 C 121.9,57.53 122.16,57.79 122.46,58.03 122.74,58.27 123.05,58.49 123.37,58.7 124.02,59.1 124.72,59.45 125.43,59.75 L 125.42,59.77 Z M 125.42,59.77" />
        </g>
        <g id="cgBatteryHands-group59">
            <path id="cgBatteryHands-bezier71" stroke="none" fill="rgb(71, 92, 113)" d="M 127.73,63.28 C 128.64,62.35 129.44,61.32 130.08,60.22 130.39,59.66 130.6,59.08 130.87,58.52 131.14,57.95 131.36,57.38 131.59,56.74 L 131.66,56.75 C 131.84,57.41 131.76,58.13 131.57,58.78 131.37,59.44 130.98,60.01 130.58,60.55 129.79,61.63 128.84,62.56 127.77,63.34 L 127.73,63.28 Z M 127.73,63.28" />
        </g>
        <g id="cgBatteryHands-group60">
            <path id="cgBatteryHands-bezier72" stroke="none" fill="rgb(71, 92, 113)" d="M 127.04,59.66 C 127.36,58.88 127.62,58.08 127.84,57.28 127.94,56.88 127.99,56.47 128.1,56.08 128.22,55.69 128.31,55.3 128.44,54.88 L 128.49,54.88 C 128.64,55.3 128.63,55.75 128.59,56.18 128.54,56.61 128.37,57.01 128.22,57.41 127.91,58.2 127.53,58.96 127.08,59.68 L 127.04,59.66 Z M 127.04,59.66" />
        </g>
        <g id="cgBatteryHands-group61">
            <path id="cgBatteryHands-bezier73" stroke="none" fill="rgb(71, 92, 113)" d="M 126.23,60.75 C 126.26,61.39 126.2,62.04 126,62.67 125.91,62.99 125.8,63.32 125.56,63.58 125.32,63.83 125.01,64.05 124.66,64.06 L 124.64,64.02 C 124.85,63.75 125.03,63.54 125.16,63.28 125.31,63.04 125.49,62.8 125.63,62.53 125.89,61.98 126.07,61.37 126.18,60.74 L 126.23,60.75 Z M 126.23,60.75" />
        </g>
    </g>
</svg>
