<?xml version="1.0" encoding="UTF-8"?>
<!DOCTYPE svg PUBLIC "-//W3C//DTD SVG 1.1//EN" "http://www.w3.org/Graphics/SVG/1.1/DTD/svg11.dtd">
<svg version="1.1" xmlns="http://www.w3.org/2000/svg" xmlns:xlink="http://www.w3.org/1999/xlink" width="175" height="133"  xml:space="preserve" id="cgLampSelection">
    <!-- Generated by PaintCode - http://www.paintcodeapp.com -->
    <ellipse id="cgLampSelection-oval" stroke="rgb(71, 92, 113)" stroke-width="1" stroke-miterlimit="10" fill="none" cx="0" cy="-0" rx="5.65" ry="13.45"  transform="translate(113.05, 66.56) rotate(-44.85)" />
    <path id="cgLampSelection-bezier12" stroke="rgb(71, 92, 113)" stroke-width="1" stroke-miterlimit="10" fill="none" d="M 122.53,69.84 L 141.33,50.94 C 143.53,48.75 141.08,42.71 135.85,37.45 130.62,32.19 124.59,29.7 122.39,31.89 L 103.59,50.79" />
    <path id="cgLampSelection-bezier13" stroke="rgb(71, 92, 113)" stroke-width="1" stroke-miterlimit="10" fill="none" d="M 114.14,64.64 L 116.1,63.58 C 116.98,62.7 116.29,60.58 114.55,58.83 112.81,57.09 110.69,56.38 109.81,57.25 L 108.74,59.21" />
    <ellipse id="cgLampSelection-oval2" stroke="rgb(71, 92, 113)" stroke-width="1" stroke-miterlimit="10" fill="none" cx="0" cy="-0" rx="1.6" ry="3.85"  transform="translate(111.5, 63.67) rotate(-44.85)" />
    <ellipse id="cgLampSelection-oval3" stroke="rgb(71, 92, 113)" stroke-width="1" stroke-miterlimit="10" fill="none" cx="0" cy="-0" rx="4.95" ry="11.75"  transform="translate(113.05, 65.72) rotate(-44.85)" />
    <path id="cgLampSelection-bezier14" stroke="rgb(71, 92, 113)" stroke-width="1" stroke-miterlimit="10" fill="none" d="M 120.94,68.78 C 118.59,69.66 114,67.48 109.95,63.41 106.13,59.57 104,55.26 104.52,52.81" />
    <path id="cgLampSelection-bezier15" stroke="rgb(71, 92, 113)" stroke-width="1" stroke-miterlimit="10" fill="none" d="M 123.34,30.37 C 123.34,30.37 128.09,22.04 130.37,16 132.65,9.95 148.02,-9.98 166.6,6.32 185.18,22.61 166.88,37.99 162.11,40.05 157.35,42.12 143.4,49.31 143.4,49.31" />
    <path id="cgLampSelection-bezier16" stroke="rgb(71, 92, 113)" stroke-width="1" stroke-miterlimit="10" fill="none" d="M 138.22,29.66 C 138.22,29.66 138.74,30.16 139.84,31.1 140.93,32.03 141.4,33.74 143.21,33.5 145.01,33.27 145.34,31.99 143.77,30.23 142.21,28.47 141.35,26.48 139.27,27.38 137.18,28.28 137.84,29.3 138.22,29.66 Z M 138.22,29.66" />
    <path id="cgLampSelection-bezier17" stroke="rgb(71, 92, 113)" stroke-width="1" stroke-miterlimit="10" fill="none" d="M 144.59,30.37 C 145.99,29.54 147.58,28.84 149.37,28.43 157.58,26.53 159.91,22.45 159.91,22.45" />
    <path id="cgLampSelection-bezier18" stroke="rgb(71, 92, 113)" stroke-width="1" stroke-miterlimit="10" fill="none" d="M 137.13,38.15 C 137.13,38.15 138.39,35.71 140.93,33.22" />
    <path id="cgLampSelection-bezier19" stroke="rgb(71, 92, 113)" stroke-width="1" stroke-miterlimit="10" fill="none" d="M 141.31,26.99 C 143.66,21.97 146.76,13.76 149.05,13.05" />
    <path id="cgLampSelection-bezier20" stroke="rgb(71, 92, 113)" stroke-width="1" stroke-miterlimit="10" fill="none" d="M 134,34.74 C 134,34.74 136.69,33.78 138.99,30.93" />
    <path id="cgLampSelection-bezier21" stroke="rgb(71, 92, 113)" stroke-width="1" stroke-miterlimit="10" fill="none" d="M 150.27,13.34 C 150.27,13.34 152.08,13.57 152.46,14.95 152.84,16.33 153.88,16.75 154.45,17.04 155.02,17.32 155.26,17.04 156.44,19.17 157.63,21.31 159.62,22.02 159.62,22.02" />
    <path id="cgLampSelection-bezier22" stroke="rgb(71, 92, 113)" stroke-width="1" stroke-miterlimit="10" fill="none" d="M 129.06,76.26 L 120.93,72.41 C 120.93,72.41 115.61,69.99 112.61,76.26 109.61,82.52 112.88,86.17 113.36,86.41 113.83,86.65 121.24,91.54 121.24,91.54" />
    <path id="cgLampSelection-bezier23" stroke="rgb(71, 92, 113)" stroke-width="1" stroke-miterlimit="10" fill="none" d="M 139.17,79.63 C 139.17,79.48 138.6,74.22 133.15,75.21 127.69,76.21 120.71,86.93 122.07,93.29 122.66,96.38 126.17,98.46 129.49,97.42" />
    <path id="cgLampSelection-bezier24" stroke="rgb(71, 92, 113)" stroke-width="1" stroke-miterlimit="10" fill="none" d="M 132.34,78.96 C 132.34,78.96 146.34,80.48 149.37,89.02 152.41,97.56 143.39,101.26 140.86,101.07 138.32,100.88 129.63,99.03 125.13,91.16" />
    <path id="cgLampSelection-bezier25" stroke="rgb(71, 92, 113)" stroke-width="1" stroke-miterlimit="10" fill="none" d="M 128.02,95.81 C 128.02,95.81 124.46,96.09 124.46,90.92 124.46,85.75 128.59,79.58 131.91,78.25 135.23,76.92 136.51,78.96 136.51,78.96" />
    <path id="cgLampSelection-bezier26" stroke="rgb(71, 92, 113)" stroke-width="1" stroke-miterlimit="10" fill="none" d="M 99.36,90.02 C 99.36,90.02 91.2,87.93 86.74,95.05" />
    <path id="cgLampSelection-bezier27" stroke="rgb(71, 92, 113)" stroke-width="1" stroke-miterlimit="10" fill="none" d="M 86.5,95.81 C 86.5,95.81 83.56,101.98 87.83,107.29 92.1,112.6 102.44,110.94 104.2,104.82 105.96,98.7 103.49,92.06 98.51,90.35" />
    <path id="cgLampSelection-bezier28" stroke="rgb(71, 92, 113)" stroke-width="1" stroke-miterlimit="10" fill="none" d="M 99.6,89.4 C 99.6,89.4 100.62,87.26 98.55,86.6 94.38,85.27 87.21,87.27 85.13,92.01" />
    <path id="cgLampSelection-bezier29" stroke="rgb(71, 92, 113)" stroke-width="1" stroke-miterlimit="10" fill="none" d="M 85.79,95.81 C 85.79,95.81 85.93,94.48 84.84,93.62 83.75,92.77 84.6,91.54 83.75,90.73 82.89,89.92 83.75,88.69 82.8,88.36 81.85,88.02 82.52,86.41 81.85,85.84 81.19,85.27 80.81,83.52 82.8,81.24 84.79,78.96 88.69,77.35 91.54,77.59" />
    <path id="cgLampSelection-bezier30" stroke="rgb(71, 92, 113)" stroke-width="1" stroke-miterlimit="10" fill="none" d="M 84.6,83.8 C 84.6,83.8 91.25,77.78 96.66,81.43" />
    <path id="cgLampSelection-bezier31" stroke="rgb(71, 92, 113)" stroke-width="1" stroke-miterlimit="10" fill="none" d="M 83.67,81.75 C 83.67,81.75 90.32,75.72 95.73,79.37" />
    <path id="cgLampSelection-bezier32" stroke="rgb(71, 92, 113)" stroke-width="1" stroke-miterlimit="10" fill="none" d="M 85.51,86.08 C 85.51,86.08 92.16,80.05 97.57,83.71" />
    <path id="cgLampSelection-bezier33" stroke="rgb(71, 92, 113)" stroke-width="1" stroke-miterlimit="10" fill="none" d="M 86.19,88.16 C 86.19,88.16 92.84,82.14 98.24,85.79" />
    <path id="cgLampSelection-bezier34" stroke="rgb(71, 92, 113)" stroke-width="1" stroke-miterlimit="10" fill="none" d="M 62.86,91.41 C 62.86,91.41 60.83,91.12 60.44,92.01" />
    <path id="cgLampSelection-bezier35" stroke="rgb(71, 92, 113)" stroke-width="1" stroke-miterlimit="10" fill="none" d="M 59.62,89.1 C 59.62,89.1 59.83,94.5 58.23,95.39 56.63,96.28 49.9,99.7 48.55,100.2" />
    <path id="cgLampSelection-bezier36" stroke="rgb(71, 92, 113)" stroke-width="1" stroke-miterlimit="10" fill="none" d="M 42.04,86.08 C 42.04,86.08 50.44,81.8 51.61,81.26 52.79,80.73 55.63,80.98 56.84,81.26" />
    <path id="cgLampSelection-bezier37" stroke="rgb(71, 92, 113)" stroke-width="1" stroke-miterlimit="10" fill="none" d="M 54.35,80.25 C 54.35,80.25 54.42,77.74 58.09,80.59 61.76,83.43 64.42,89.88 63.78,92.86 63.14,95.85 61.01,94.64 59.9,93.97" />
    <path id="cgLampSelection-bezier38" stroke="rgb(71, 92, 113)" stroke-width="1" stroke-miterlimit="10" fill="none" d="M 56.06,78.84 C 56.06,78.84 59.37,77.49 60.44,77.56 61.51,77.63 64.99,80.88 65.32,81.75" />
    <path id="cgLampSelection-bezier39" stroke="rgb(71, 92, 113)" stroke-width="1" stroke-miterlimit="10" fill="none" d="M 60.9,77.13 C 60.9,77.13 61.43,75.89 62.86,76.14 64.28,76.39 67.38,79.29 67.45,79.65" />
    <path id="cgLampSelection-bezier40" stroke="rgb(71, 92, 113)" stroke-width="1" stroke-miterlimit="10" fill="none" d="M 63.88,75.68 C 63.88,75.68 64.41,74.43 65.84,74.68 67.26,74.93 70.36,77.83 70.43,78.2" />
    <path id="cgLampSelection-bezier41" stroke="rgb(71, 92, 113)" stroke-width="1" stroke-miterlimit="10" fill="none" d="M 66.32,74.34 C 66.32,74.34 66.85,73.1 68.27,73.34 69.7,73.59 72.79,76.49 72.86,76.86" />
    <path id="cgLampSelection-bezier42" stroke="rgb(71, 92, 113)" stroke-width="1" stroke-miterlimit="10" fill="none" d="M 69.16,73.17 C 69.16,73.17 69.7,71.92 71.12,72.17 72.54,72.42 75.64,75.32 75.71,75.68" />
    <path id="cgLampSelection-bezier43" stroke="rgb(71, 92, 113)" stroke-width="1" stroke-miterlimit="10" fill="none" d="M 75.07,74.18 C 75.07,74.18 77.27,74.2 78.27,75.68 79.26,77.17 79.16,79.84 78.62,80.69" />
    <path id="cgLampSelection-bezier44" stroke="rgb(71, 92, 113)" stroke-width="1" stroke-miterlimit="10" fill="none" d="M 76.49,76.42 C 76.49,76.42 79.02,80.91 77.81,83.22 76.6,85.53 76.31,85.07 76.03,85.53 75.74,86 74.28,86.42 74,87.01 73.71,87.6 72.11,87.85 71.83,88.67 71.54,89.48 69.55,88.69 68.84,90.35 68.13,92.01 64.73,94.11 63.68,94.4" />
    <path id="cgLampSelection-bezier45" stroke="rgb(71, 92, 113)" stroke-width="1" stroke-miterlimit="10" fill="none" d="M 60.55,42.9 C 60.55,42.9 57.41,38.34 55.71,34.5 54,30.66 49.66,23.4 31.79,20.34 13.92,17.28 1.9,18.77 -0.17,23.04 -2.23,27.31 7.09,42.33 14.14,50.23 21.19,58.13 29.51,65.82 42.54,63.75 47.02,62.83 50.94,62.97 50.94,62.97" />
    <path id="cgLampSelection-bezier46" stroke="rgb(71, 92, 113)" stroke-width="1" stroke-miterlimit="10" fill="none" d="M 61.59,44.65 C 61.59,44.65 54.24,53.2 51.96,63.02 51.77,64.16 51.96,64.44 53.19,64.35 54.42,64.25 59.03,64.63 59.93,66.25 60.83,67.86 63.39,67.1 63.39,67.1" />
    <path id="cgLampSelection-bezier47" stroke="rgb(71, 92, 113)" stroke-width="1" stroke-miterlimit="10" fill="none" d="M 64.18,65.3 C 64.18,65.3 64.2,69.28 65.01,69.35 65.81,69.43 67.15,69.35 67.15,69.35" />
    <path id="cgLampSelection-bezier48" stroke="rgb(71, 92, 113)" stroke-width="1" stroke-miterlimit="10" fill="none" d="M 67.81,67.76 C 67.81,67.76 68.06,71.42 69.59,71.8" />
    <path id="cgLampSelection-bezier49" stroke="rgb(71, 92, 113)" stroke-width="1" stroke-miterlimit="10" fill="none" d="M 72.65,72.14 C 72.65,72.14 73.54,71.94 74.18,71.48" />
    <path id="cgLampSelection-bezier50" stroke="rgb(71, 92, 113)" stroke-width="1" stroke-miterlimit="10" fill="none" d="M 77.05,69.63 C 77.05,69.63 75.03,71.9 73.82,71.05 72.61,70.2 73.43,67.35 74.53,65 75.63,62.65 79.8,55.83 80.47,55.97 81.15,56.1 80.26,58.91 80.26,58.91" />
    <path id="cgLampSelection-bezier51" stroke="rgb(71, 92, 113)" stroke-width="1" stroke-miterlimit="10" fill="none" d="M 79.66,59.09 C 79.66,59.09 83.64,63.79 81.86,67.03 80.08,70.27 75.71,69.02 75.71,69.02" />
    <path id="cgLampSelection-bezier52" stroke="rgb(71, 92, 113)" stroke-width="1" stroke-miterlimit="10" fill="none" d="M 81.58,63.6 C 81.58,63.6 79.09,65.78 79.37,68.38" />
    <path id="cgLampSelection-bezier53" stroke="rgb(71, 92, 113)" stroke-width="1" stroke-miterlimit="10" fill="none" d="M 80.73,55.68 C 80.73,55.68 80.9,54.79 78.45,55.21" />
    <path id="cgLampSelection-bezier54" stroke="rgb(71, 92, 113)" stroke-width="1" stroke-miterlimit="10" fill="none" d="M 77.98,55.1 C 77.98,55.1 77.59,52.79 76.7,53.08 75.81,53.36 73.85,54.93 71.4,61.33" />
    <path id="cgLampSelection-bezier55" stroke="rgb(71, 92, 113)" stroke-width="1" stroke-miterlimit="10" fill="none" d="M 73.85,53.29 C 73.85,53.29 73.46,50.99 72.57,51.27 71.68,51.56 69.72,53.12 67.27,59.53" />
    <path id="cgLampSelection-bezier56" stroke="rgb(71, 92, 113)" stroke-width="1" stroke-miterlimit="10" fill="none" d="M 69.59,50.96 C 69.59,50.96 69.2,48.65 68.31,48.94 67.42,49.22 65.46,50.79 63.01,57.19" />
    <path id="cgLampSelection-bezier57" stroke="rgb(71, 92, 113)" stroke-width="1" stroke-miterlimit="10" fill="none" d="M 67.15,48.59 C 67.15,48.59 62.97,46.35 62.08,45" />
    <path id="cgLampSelection-bezier58" stroke="rgb(71, 92, 113)" stroke-width="1" stroke-miterlimit="10" fill="none" d="M 22.32,38.49 C 22.32,38.49 34.85,45.92 35.28,46.8 35.71,47.67 37.84,45.6 38.48,44.25 39.12,42.9 40.4,40.34 38.05,40.05 35.7,39.77 25.74,35.36 25.17,34.86" />
    <path id="cgLampSelection-bezier59" stroke="rgb(71, 92, 113)" stroke-width="1" stroke-miterlimit="10" fill="none" d="M 35.99,43.9 C 35.99,43.9 27.66,38.84 25.88,38.27" />
    <path id="cgLampSelection-bezier60" stroke="rgb(71, 92, 113)" stroke-width="1" stroke-miterlimit="10" fill="none" d="M 38.77,45.67 C 38.77,45.67 43.89,48.38 44.39,50.16 44.89,51.94 50.37,52.29 50.87,53.58" />
    <path id="cgLampSelection-bezier61" stroke="rgb(71, 92, 113)" stroke-width="1" stroke-miterlimit="10" fill="none" d="M 40.4,42.61 C 40.4,42.61 42.89,45.96 45.38,45.68 47.88,45.39 48.09,46.17 50.3,47.53 52.5,48.88 53.93,48.59 53.93,48.59" />
    <path id="cgLampSelection-bezier62" stroke="rgb(71, 92, 113)" stroke-width="1" stroke-miterlimit="10" fill="none" d="M 57.64,48.62 C 57.64,48.62 56.28,47.22 54.92,48.62 53.57,50.02 51.22,53.2 51.36,55.1 51.51,56.99 53.28,56.49 53.28,56.49" />
    <path id="cgLampSelection-bezier63" stroke="rgb(71, 92, 113)" stroke-width="1" stroke-miterlimit="10" fill="none" d="M 93.1,64.09 C 93,64.16 93,66.96 96.04,66.96 99.08,66.96 99.79,65.11 99.6,64.39" />
    <path id="cgLampSelection-bezier64" stroke="rgb(71, 92, 113)" stroke-width="1" stroke-miterlimit="10" fill="none" d="M 92.34,64.64 C 92.34,64.64 88.97,62.66 89.16,60.89 89.35,59.13 91.44,57.28 96.89,57.47 102.35,57.66 104.05,60.89 104.06,62.31 104.07,63.9 102.59,65.15 100.31,65.3" />
    <path id="cgLampSelection-bezier65" stroke="rgb(71, 92, 113)" stroke-width="1" stroke-miterlimit="10" fill="none" d="M 89.15,59.09 C 89.15,59.09 90.25,50.78 90.44,48.59 90.63,46.41 89.79,44.46 89.79,44.46" />
    <path id="cgLampSelection-bezier66" stroke="rgb(71, 92, 113)" stroke-width="1" stroke-miterlimit="10" fill="none" d="M 89.54,48.91 C 89.54,48.91 85.46,45.37 88.26,42.05 91.06,38.72 97.51,39.53 97.51,39.53 97.51,39.53 102.07,42.43 106.34,41.41 107.95,41.71 109.42,43.61 109.52,43.9" />
    <path id="cgLampSelection-bezier67" stroke="rgb(71, 92, 113)" stroke-width="1" stroke-miterlimit="10" fill="none" d="M 92.38,42.85 C 92.53,42.71 97.23,41.1 102.07,43.09" />
    <path id="cgLampSelection-bezier68" stroke="rgb(71, 92, 113)" stroke-width="1" stroke-miterlimit="10" fill="none" d="M 93.07,38.84 C 93.07,38.84 93.67,30.88 93.67,30.34 93.67,29.8 95.18,25.86 100.97,26.48 106.76,27.1 106.86,30.93 106.86,30.93 L 106.34,40.67" />
    <path id="cgLampSelection-bezier69" stroke="rgb(71, 92, 113)" stroke-width="1" stroke-miterlimit="10" fill="none" d="M 99.74,25.96 C 99.74,25.96 100.88,24.62 101.5,24.67 102.11,24.73 102.78,25.96 102.78,25.96" />
    <path id="cgLampSelection-bezier70" stroke="rgb(71, 92, 113)" stroke-width="1" stroke-miterlimit="10" fill="none" d="M 41.43,91.94 C 40.64,89.18 40.72,86.94 41.75,86.49 43.09,85.91 45.54,88.55 47.22,92.4 48.9,96.25 49.18,99.84 47.83,100.42 46.71,100.91 44.82,99.15 43.25,96.31" />
    <path id="cgLampSelection-bezier71" stroke="rgb(71, 92, 113)" stroke-width="1" stroke-miterlimit="10" fill="none" d="M 43.04,90.97 C 43.04,90.97 41.14,93.39 39.33,93.91 37.53,94.43 37.25,96.14 38.24,97.37 39.24,98.61 41.19,96.66 41.19,96.66 41.19,96.66 42.42,95.67 45.41,95.81" />
    <path id="cgLampSelection-bezier72" stroke="rgb(71, 92, 113)" stroke-width="1" stroke-miterlimit="10" fill="none" d="M 67.15,81.43 C 67.15,81.43 71.63,86.79 70.43,88.69" />
    <path id="cgLampSelection-bezier73" stroke="rgb(71, 92, 113)" stroke-width="1" stroke-miterlimit="10" fill="none" d="M 69.59,79.88 C 69.59,79.88 74.06,85.25 72.86,87.14" />
    <path id="cgLampSelection-bezier74" stroke="rgb(71, 92, 113)" stroke-width="1" stroke-miterlimit="10" fill="none" d="M 71.83,78.4 C 71.83,78.4 76.3,83.76 75.1,85.66" />
    <path id="cgLampSelection-bezier75" stroke="rgb(71, 92, 113)" stroke-width="1" stroke-miterlimit="10" fill="none" d="M 73.57,76.86 C 73.57,76.86 78.04,82.22 76.84,84.12" />
    <path id="cgLampSelection-bezier76" stroke="rgb(71, 92, 113)" stroke-width="1" stroke-miterlimit="10" fill="none" d="M 46.79,88.16 L 53.52,84.62" />
    <path id="cgLampSelection-bezier77" stroke="rgb(71, 92, 113)" stroke-width="1" stroke-miterlimit="10" fill="none" d="M 104.44,29.9 L 103.89,39.72" />
</svg>
