<?xml version="1.0" encoding="UTF-8"?>
<!DOCTYPE svg PUBLIC "-//W3C//DTD SVG 1.1//EN" "http://www.w3.org/Graphics/SVG/1.1/DTD/svg11.dtd">
<svg version="1.1" xmlns="http://www.w3.org/2000/svg" xmlns:xlink="http://www.w3.org/1999/xlink" width="181" height="133"  xml:space="preserve" id="cgResistingHand">
    <!-- Generated by PaintCode - http://www.paintcodeapp.com -->
    <g id="cgResistingHand-group63">
        <path id="cgResistingHand-bezier74" stroke="none" fill="rgb(71, 92, 113)" d="M 181.07,117.42 C 175.71,113.95 170.7,109.93 166.12,105.44 163.84,103.2 161.62,100.85 159.74,98.23 157.9,95.61 156.24,92.81 155.18,89.77 L 155.27,89.73 C 156.84,92.51 158.58,95.15 160.55,97.64 162.49,100.13 164.5,102.58 166.69,104.88 168.88,107.18 171.21,109.36 173.62,111.43 176.03,113.51 178.52,115.5 181.13,117.33 L 181.07,117.42 Z M 181.07,117.42" />
    </g>
    <g id="cgResistingHand-group64">
        <path id="cgResistingHand-bezier75" stroke="none" fill="rgb(71, 92, 113)" d="M 158.8,91.77 C 158.05,89.48 157.27,87.2 156.43,84.94 156.02,83.81 155.59,82.69 155.12,81.59 154.88,81.04 154.63,80.49 154.35,79.98 154.22,79.7 154.03,79.57 153.86,79.2 153.73,78.9 153.63,78.61 153.54,78.32 152.22,73.67 151.04,69.02 149.43,64.49 147.84,59.95 145.92,55.55 143.63,51.36 141.36,47.17 138.56,43.24 134.95,40.04 L 135.01,39.96 C 139.01,42.73 142.05,46.7 144.51,50.87 146.95,55.08 148.7,59.64 150.19,64.23 151.71,68.82 152.81,73.54 154.02,78.18 154.1,78.46 154.19,78.75 154.29,79.01 154.35,79.2 154.62,79.49 154.74,79.77 155.03,80.31 155.26,80.87 155.49,81.44 155.93,82.56 156.33,83.7 156.72,84.84 157.49,87.13 158.21,89.43 158.9,91.74 L 158.8,91.77 Z M 158.8,91.77" />
    </g>
    <g id="cgResistingHand-group65">
        <path id="cgResistingHand-bezier76" stroke="none" fill="rgb(71, 92, 113)" d="M 126.9,32.37 C 127.23,36.72 127.34,41.1 126.84,45.47 126.72,46.57 126.55,47.66 126.28,48.75 126.13,49.29 125.97,49.84 125.74,50.37 125.48,50.9 125.24,51.35 125,51.84 123.98,53.76 122.99,55.68 122.02,57.64 L 121.93,57.61 C 122.36,55.44 123.23,53.41 124.1,51.41 124.58,50.39 125.03,49.51 125.33,48.48 125.64,47.47 125.87,46.42 126.05,45.36 126.4,43.23 126.58,41.07 126.68,38.9 126.8,36.73 126.84,34.55 126.8,32.38 L 126.9,32.37 Z M 126.9,32.37" />
    </g>
    <g id="cgResistingHand-group66">
        <path id="cgResistingHand-bezier77" stroke="none" fill="rgb(71, 92, 113)" d="M 109.05,59.13 C 108.84,57.32 108.69,55.51 108.62,53.68 108.59,52.77 108.57,51.86 108.6,50.94 108.64,50.03 108.7,49.11 108.94,48.2 L 108.93,48.28 C 108.71,47.17 108.61,46.05 108.55,44.93 108.48,43.81 108.45,42.69 108.45,41.57 108.43,39.33 108.51,37.09 108.61,34.86 L 108.65,35.03 C 108.09,34.09 107.77,33.1 107.46,32.1 107.17,31.1 106.93,30.09 106.74,29.07 106.37,27.02 106.15,24.94 106.28,22.84 106.35,21.79 106.5,20.72 106.89,19.69 107.28,18.65 108.02,17.76 108.89,17.08 110.65,15.75 112.81,15.19 114.94,15.08 116.01,15.04 117.09,15.12 118.15,15.4 118.68,15.55 119.2,15.75 119.7,16.05 120.17,16.33 120.59,16.65 121.01,16.97 122.65,18.27 124.14,19.72 125.52,21.28 126.91,22.83 128.13,24.54 129.1,26.39 130.06,28.23 130.71,30.29 130.65,32.37 L 130.55,32.37 C 130.47,30.31 129.63,28.4 128.62,26.65 127.6,24.9 126.3,23.32 124.92,21.83 123.53,20.35 122.01,18.97 120.4,17.76 120,17.46 119.59,17.16 119.18,16.91 118.79,16.68 118.34,16.52 117.88,16.4 116.95,16.15 115.96,16.08 114.97,16.11 113.02,16.18 111.01,16.68 109.45,17.82 108.68,18.39 108.05,19.12 107.69,20.01 107.33,20.9 107.16,21.9 107.07,22.89 106.92,24.89 107.09,26.94 107.43,28.94 107.6,29.95 107.81,30.94 108.08,31.92 108.36,32.89 108.67,33.88 109.16,34.71 L 109.21,34.8 109.2,34.89 C 109.06,37.11 108.96,39.34 108.93,41.57 108.91,42.68 108.91,43.8 108.95,44.91 109,46.02 109.07,47.13 109.26,48.21 L 109.27,48.25 109.26,48.29 C 109.02,49.14 108.94,50.05 108.88,50.95 108.83,51.86 108.82,52.76 108.84,53.67 108.87,55.49 108.98,57.31 109.15,59.12 L 109.05,59.13 Z M 109.05,59.13" />
    </g>
    <g id="cgResistingHand-group67">
        <path id="cgResistingHand-bezier78" stroke="none" fill="rgb(71, 92, 113)" d="M 111.22,44.23 C 112.79,43.98 114.39,43.92 115.99,44.06 116.78,44.13 117.59,44.22 118.36,44.47 119.12,44.74 119.87,45.08 120.49,45.6 L 120.46,45.65 C 119.71,45.38 118.98,45.13 118.22,44.95 117.47,44.77 116.72,44.58 115.94,44.46 114.39,44.23 112.81,44.17 111.23,44.27 L 111.22,44.23 Z M 111.22,44.23" />
    </g>
    <g id="cgResistingHand-group68">
        <path id="cgResistingHand-bezier79" stroke="none" fill="rgb(71, 92, 113)" d="M 109.33,20.36 C 110.29,19.06 111.79,18.16 113.43,17.91 114.24,17.78 115.09,17.77 115.89,17.97 116.68,18.19 117.45,18.5 118.11,18.98 L 118.09,19.02 C 117.31,18.81 116.56,18.58 115.79,18.46 115.02,18.34 114.25,18.23 113.48,18.31 111.94,18.46 110.43,19.2 109.37,20.39 L 109.33,20.36 Z M 109.33,20.36" />
    </g>
    <g id="cgResistingHand-group69">
        <path id="cgResistingHand-bezier80" stroke="none" fill="rgb(71, 92, 113)" d="M 110.43,59.13 C 110.13,57.55 110.07,55.88 110.61,54.28 110.9,53.49 111.39,52.74 112.1,52.22 112.81,51.69 113.68,51.44 114.53,51.36 116.14,51.23 118.1,51.47 119.37,52.83 120.61,54.17 120.9,56.05 120.52,57.63 L 120.42,57.62 C 120.25,56.03 119.73,54.5 118.66,53.54 117.61,52.58 116.13,52.15 114.58,52.16 113.83,52.18 113.09,52.35 112.47,52.75 111.86,53.15 111.39,53.77 111.08,54.47 110.46,55.88 110.36,57.54 110.52,59.12 L 110.43,59.13 Z M 110.43,59.13" />
    </g>
    <g id="cgResistingHand-group70">
        <path id="cgResistingHand-bezier81" stroke="none" fill="rgb(71, 92, 113)" d="M 106.58,17.65 C 105.52,15.48 104.09,13.47 102.31,11.88 100.56,10.29 98.29,9.2 95.98,9.28 93.6,9.33 91.32,10.06 89.36,11.29 88.37,11.89 87.48,12.67 86.75,13.57 86.04,14.48 85.42,15.54 85.4,16.74 L 85.3,16.76 C 85.02,15.51 85.53,14.23 86.18,13.17 86.86,12.09 87.78,11.2 88.8,10.46 90.89,8.98 93.5,8.41 95.96,8.48 98.55,8.5 100.91,9.8 102.65,11.52 104.4,13.27 105.73,15.37 106.68,17.61 L 106.58,17.65 Z M 106.58,17.65" />
    </g>
    <g id="cgResistingHand-group71">
        <path id="cgResistingHand-bezier82" stroke="none" fill="rgb(71, 92, 113)" d="M 98.1,43.35 C 99.56,43.39 101.02,43.27 102.44,43 103.15,42.86 103.84,42.65 104.53,42.47 105.23,42.3 105.91,42.07 106.62,41.85 L 106.64,41.9 C 106.06,42.37 105.38,42.69 104.68,42.95 103.98,43.2 103.24,43.31 102.5,43.4 101.04,43.58 99.55,43.59 98.1,43.4 L 98.1,43.35 Z M 98.1,43.35" />
    </g>
    <g id="cgResistingHand-group72">
        <path id="cgResistingHand-bezier83" stroke="none" fill="rgb(71, 92, 113)" d="M 88.58,14.86 C 89.89,13.42 91.66,12.48 93.52,11.91 94.45,11.62 95.41,11.4 96.38,11.36 97.36,11.33 98.33,11.38 99.28,11.6 L 99.28,11.65 C 98.31,11.71 97.36,11.74 96.42,11.86 95.48,11.96 94.55,12.07 93.62,12.29 92.71,12.52 91.81,12.84 90.96,13.28 90.12,13.7 89.3,14.22 88.62,14.89 L 88.58,14.86 Z M 88.58,14.86" />
    </g>
    <g id="cgResistingHand-group73">
        <path id="cgResistingHand-bezier84" stroke="none" fill="rgb(71, 92, 113)" d="M 97.18,55.42 C 97.67,54.21 98.47,53.1 99.57,52.3 100.7,51.53 102.11,51.2 103.51,51.39 104.22,51.49 104.95,51.85 105.46,52.4 105.98,52.94 106.28,53.61 106.47,54.27 106.83,55.6 106.85,56.94 106.68,58.25 L 106.58,58.25 C 106.21,56.99 105.96,55.72 105.52,54.58 105.1,53.46 104.52,52.44 103.35,52.18 102.21,51.93 100.89,52.1 99.84,52.73 98.76,53.34 97.87,54.33 97.27,55.46 L 97.18,55.42 Z M 97.18,55.42" />
    </g>
    <g id="cgResistingHand-group74">
        <path id="cgResistingHand-bezier85" stroke="none" fill="rgb(71, 92, 113)" d="M 94.8,55.43 C 94.99,52.76 95,50.06 94.73,47.39 94.59,46.06 94.37,44.74 93.99,43.47 93.58,42.22 93.08,40.94 92.64,39.68 90.84,34.61 89.04,29.54 86.9,24.63 86.36,23.4 85.8,22.19 85.18,21.01 84.56,19.84 83.91,18.67 83.05,17.75 82.17,16.78 81.19,15.89 80.09,15.31 78.99,14.71 77.74,14.52 76.47,14.66 75.2,14.78 73.92,15.15 72.66,15.57 71.41,15.99 70.2,16.51 69.1,17.21 68,17.91 67.05,18.84 66.41,19.98 65.75,21.11 65.41,22.42 65.27,23.75 L 65.17,23.75 C 65.16,22.4 65.41,21.02 66.01,19.77 66.61,18.52 67.58,17.45 68.7,16.64 69.82,15.81 71.1,15.24 72.37,14.75 73.65,14.28 74.95,13.85 76.36,13.67 77.76,13.5 79.29,13.71 80.57,14.4 81.85,15.08 82.87,16.06 83.78,17.09 84.73,18.16 85.36,19.4 85.98,20.61 86.58,21.83 87.12,23.07 87.64,24.31 89.69,29.31 91.41,34.41 93.11,39.52 93.52,40.8 93.97,42.05 94.37,43.36 94.73,44.67 94.92,46.02 95.03,47.37 95.23,50.06 95.16,52.76 94.9,55.44 L 94.8,55.43 Z M 94.8,55.43" />
    </g>
    <g id="cgResistingHand-group75">
        <path id="cgResistingHand-bezier86" stroke="none" fill="rgb(71, 92, 113)" d="M 44.55,28.12 C 45.01,25.76 46.2,23.49 48.11,21.95 49.06,21.18 50.2,20.64 51.38,20.35 52.59,20.08 53.76,19.97 54.95,19.77 56.14,19.62 57.33,19.39 58.61,19.51 59.24,19.57 59.88,19.83 60.4,20.2 60.92,20.57 61.36,21.01 61.78,21.44 63.45,23.19 65.02,25.01 66.52,26.9 68.02,28.79 69.44,30.75 70.67,32.84 71.87,34.94 73,37.22 73.13,39.78 73.2,42.26 72.8,44.67 72.24,47.02 71.66,49.37 70.93,51.67 70.02,53.89 L 69.93,53.86 C 70.56,51.55 71.13,49.22 71.55,46.88 71.96,44.54 72.3,42.16 72.13,39.84 72.08,38.7 71.76,37.6 71.33,36.51 70.91,35.43 70.39,34.37 69.81,33.34 68.67,31.27 67.32,29.3 65.88,27.39 64.44,25.49 62.91,23.65 61.31,21.89 60.5,21.02 59.66,20.19 58.53,20.08 57.41,19.95 56.2,20.14 55.02,20.27 53.84,20.43 52.61,20.52 51.47,20.74 50.33,20.99 49.23,21.47 48.29,22.18 46.4,23.61 45.17,25.82 44.65,28.14 L 44.55,28.12 Z M 44.55,28.12" />
    </g>
    <g id="cgResistingHand-group76">
        <path id="cgResistingHand-bezier87" stroke="none" fill="rgb(71, 92, 113)" d="M 69.2,52.67 C 67.96,52.2 66.56,52.14 65.45,52.63 64.89,52.88 64.47,53.32 64,53.69 63.52,54.08 63.07,54.54 62.52,55 L 62.43,54.95 C 62.5,54.23 62.82,53.56 63.28,52.99 63.75,52.41 64.48,52.07 65.18,51.88 66.63,51.47 68.11,51.84 69.25,52.58 L 69.2,52.67 Z M 69.2,52.67" />
    </g>
    <path id="cgResistingHand-bezier88" stroke="none" fill="rgb(71, 92, 113)" d="M 52.3,42.65 C 52.09,41.92 47.7,26.69 24.6,22.79 2.51,19.07 0.85,19.45 0.3,19.58 L 1.65,25.42 C 1.39,25.49 1.2,25.49 1.19,25.49 1.49,25.48 4.67,25.52 23.6,28.71 42.84,31.95 47.79,45.4 47.96,45.99 L 51.67,49.13 C 51.67,49.13 51.44,47.75 51.96,46.5 52.06,43.18 52.3,42.65 52.3,42.65 Z M 52.3,42.65" />
    <path id="cgResistingHand-bezier89" stroke="none" fill="rgb(71, 92, 113)" d="M 126.99,42.06 L 127,35.89 128.23,38.63 126.99,35.89 C 127.25,35.77 152.98,23.93 161.92,0.07 L 167.54,2.18 C 157.71,28.42 128.14,41.54 126.99,42.06 Z M 126.99,42.06" />
    <g id="cgResistingHand-group77">
        <path id="cgResistingHand-bezier90" stroke="none" fill="rgb(71, 92, 113)" d="M 80.13,44.1 C 82.07,43.8 83.97,43.24 85.79,42.52 86.7,42.15 87.57,41.71 88.45,41.29 89.34,40.89 90.19,40.42 91.09,39.98 L 91.11,40.02 C 90.38,40.7 89.54,41.24 88.68,41.74 87.8,42.22 86.87,42.57 85.93,42.89 84.05,43.54 82.11,43.99 80.13,44.15 L 80.13,44.1 Z M 80.13,44.1" />
    </g>
    <g id="cgResistingHand-group78">
        <path id="cgResistingHand-bezier91" stroke="none" fill="rgb(71, 92, 113)" d="M 79.23,16.28 C 77.28,16.61 75.38,17.16 73.55,17.86 72.64,18.22 71.76,18.65 70.87,19.07 69.98,19.47 69.13,19.94 68.24,20.4 L 68.21,20.36 C 68.93,19.66 69.78,19.11 70.65,18.62 71.52,18.14 72.47,17.8 73.41,17.49 75.3,16.86 77.25,16.42 79.22,16.23 L 79.23,16.28 Z M 79.23,16.28" />
    </g>
    <g id="cgResistingHand-group79">
        <path id="cgResistingHand-bezier92" stroke="none" fill="rgb(71, 92, 113)" d="M 59.98,21.78 C 58.31,21.86 56.65,22.01 55.01,22.24 54.19,22.37 53.39,22.54 52.58,22.7 51.78,22.85 50.98,23.02 50.24,23.4 L 50.21,23.36 C 50.81,22.72 51.67,22.45 52.47,22.21 53.29,21.99 54.13,21.92 54.97,21.85 56.64,21.7 58.31,21.67 59.98,21.73 L 59.98,21.78 Z M 59.98,21.78" />
    </g>
    <g id="cgResistingHand-group80">
        <path id="cgResistingHand-bezier93" stroke="none" fill="rgb(71, 92, 113)" d="M 62.98,42.63 C 64.4,42.54 65.82,42.39 67.21,42.16 67.91,42.03 68.59,41.86 69.27,41.71 69.95,41.55 70.63,41.39 71.21,40.98 L 71.25,41.02 C 70.84,41.67 70.08,41.95 69.41,42.19 68.71,42.41 67.98,42.48 67.27,42.55 65.84,42.7 64.4,42.73 62.98,42.68 L 62.98,42.63 Z M 62.98,42.63" />
    </g>
    <g id="cgResistingHand-group81">
        <path id="cgResistingHand-bezier94" stroke="none" fill="rgb(71, 92, 113)" d="M 42.43,26.64 C 41.85,25.62 40.94,24.82 39.97,24.2 39,23.57 37.91,23.13 36.8,22.83 35.68,22.53 34.52,22.46 33.37,22.28 32.22,22.11 31.05,22.01 29.85,21.8 L 29.85,21.7 C 31.02,21.36 32.24,21.25 33.46,21.29 34.68,21.32 35.88,21.66 37.03,22.07 38.18,22.48 39.29,23.05 40.26,23.79 41.21,24.56 42.05,25.49 42.52,26.61 L 42.43,26.64 Z M 42.43,26.64" />
    </g>
    <g id="cgResistingHand-group82">
        <path id="cgResistingHand-bezier95" stroke="none" fill="rgb(71, 92, 113)" d="M 26.52,30.12 C 26.81,31.08 27.12,32.04 27.46,32.96 27.63,33.43 27.9,33.85 28.01,34.3 28.14,34.77 28.21,35.2 28.38,35.71 L 28.32,35.79 C 27.72,35.64 27.35,35.14 27.09,34.69 26.81,34.22 26.78,33.68 26.69,33.17 26.51,32.16 26.43,31.15 26.43,30.13 L 26.52,30.12 Z M 26.52,30.12" />
    </g>
    <g id="cgResistingHand-group83">
        <path id="cgResistingHand-bezier96" stroke="none" fill="rgb(71, 92, 113)" d="M 31.27,32.38 C 31.12,33.77 30.87,35.16 30.43,36.5 30.21,37.16 29.94,37.83 29.48,38.38 29.36,38.52 29.21,38.65 29.09,38.76 28.98,38.86 28.89,39.01 28.81,39.16 28.66,39.46 28.56,39.79 28.47,40.12 28.16,41.47 28.07,42.87 28.02,44.26 27.98,45.66 28.01,47.05 28.11,48.44 28.16,49.13 28.22,49.83 28.35,50.5 28.44,51.17 28.88,51.72 29.2,52.34 L 31.34,55.95 C 32.77,58.36 34.19,60.76 35.58,63.2 36.94,65.64 38.35,68.06 39.44,70.68 39.56,71.02 39.69,71.36 39.77,71.73 39.84,72.08 39.9,72.43 39.95,72.78 40.05,73.48 40.14,74.16 40.27,74.84 40.51,76.2 40.9,77.52 41.46,78.77 42.57,81.29 44.32,83.48 46.32,85.37 48.33,87.27 50.61,88.88 52.97,90.33 57.76,93.16 62.79,95.6 67.96,97.69 70.53,98.76 73.15,99.74 75.72,100.91 78.29,102.07 80.78,103.51 82.99,105.29 85.2,107.11 87.14,109.13 89,111.24 90.85,113.36 92.59,115.57 94.19,117.88 97.36,122.5 100.32,127.36 101.97,132.74 L 101.88,132.77 C 100.99,130.12 99.66,127.64 98.25,125.25 96.84,122.85 95.28,120.53 93.63,118.29 90.31,113.83 86.65,109.55 82.36,106.08 78.09,102.55 72.74,100.75 67.58,98.6 62.4,96.44 57.36,93.93 52.55,91.01 50.17,89.52 47.87,87.86 45.82,85.9 43.79,83.94 42,81.66 40.86,79.04 40.29,77.73 39.9,76.35 39.66,74.95 39.54,74.25 39.45,73.55 39.36,72.86 39.27,72.16 39.16,71.53 38.9,70.89 37.87,68.34 36.48,65.89 35.14,63.44 33.79,61 32.39,58.58 30.99,56.16 L 28.9,52.52 28.39,51.59 C 28.22,51.29 28.08,50.91 28.03,50.56 27.91,49.86 27.85,49.16 27.81,48.46 27.72,47.06 27.71,45.66 27.77,44.25 27.84,42.85 27.94,41.45 28.28,40.07 28.37,39.73 28.48,39.39 28.64,39.07 28.73,38.91 28.82,38.76 28.97,38.62 29.11,38.5 29.23,38.4 29.34,38.27 29.78,37.75 30.06,37.1 30.29,36.45 30.74,35.13 31,33.75 31.17,32.37 L 31.27,32.38 Z M 31.27,32.38" />
    </g>
    <g id="cgResistingHand-group84">
        <path id="cgResistingHand-bezier97" stroke="none" fill="rgb(71, 92, 113)" d="M 100.08,97.48 C 103.23,94.52 106.64,91.83 110.17,89.34 113.72,86.87 117.43,84.62 121.33,82.72 125.21,80.8 129.3,79.25 133.55,78.32 137.79,77.46 142.22,77.16 146.48,77.98 L 146.47,78.03 C 142.18,77.5 137.83,77.81 133.65,78.81 129.46,79.74 125.4,81.25 121.5,83.08 117.61,84.93 113.88,87.13 110.31,89.55 106.75,91.98 103.31,94.61 100.12,97.52 L 100.08,97.48 Z M 100.08,97.48" />
    </g>
    <g id="cgResistingHand-group85">
        <path id="cgResistingHand-bezier98" stroke="none" fill="rgb(71, 92, 113)" d="M 121.96,64.55 C 117.18,62.96 112.35,61.5 107.5,60.17 102.64,58.83 97.76,57.61 92.82,56.67 90.35,56.21 87.87,55.83 85.38,55.59 82.9,55.38 80.39,55.25 77.89,55.23 75.39,55.17 72.88,55.27 70.39,55.5 69.14,55.61 67.9,55.76 66.66,55.98 65.42,56.17 64.19,56.43 62.99,56.8 L 62.96,56.7 C 65.3,55.71 67.8,55.2 70.3,54.81 72.82,54.43 75.35,54.28 77.89,54.23 80.43,54.21 82.96,54.33 85.49,54.61 88.01,54.91 90.51,55.36 92.98,55.89 97.93,56.93 102.8,58.25 107.63,59.69 112.46,61.15 117.25,62.74 121.99,64.45 L 121.96,64.55 Z M 121.96,64.55" />
    </g>
    <g id="cgResistingHand-group86">
        <path id="cgResistingHand-bezier99" stroke="none" fill="rgb(71, 92, 113)" d="M 62.46,56.63 C 61.21,56.46 59.96,56.22 58.72,55.91 58.11,55.75 57.46,55.66 56.88,55.34 56.6,55.18 56.31,55.01 56.05,54.79 55.81,54.56 55.51,54.3 55.47,53.89 L 55.57,53.86 C 56.07,54.15 56.7,54.22 57.27,54.42 57.86,54.59 58.4,54.91 58.97,55.15 60.13,55.62 61.31,56.08 62.49,56.54 L 62.46,56.63 Z M 62.46,56.63" />
    </g>
    <g id="cgResistingHand-group87">
        <path id="cgResistingHand-bezier100" stroke="none" fill="rgb(71, 92, 113)" d="M 54.48,52.7 C 53.65,51.7 52.8,50.73 51.91,49.79 51.47,49.32 51.03,48.86 50.56,48.43 50.33,48.21 50.09,48.01 49.85,47.83 49.72,47.74 49.64,47.7 49.47,47.59 49.31,47.5 49.15,47.38 49.03,47.27 47.99,46.38 47.12,45.44 46.29,44.46 45.45,43.51 44.73,42.45 43.59,41.88 L 43.61,41.78 C 44.31,41.76 44.95,42.13 45.5,42.5 46.07,42.87 46.55,43.33 47.03,43.78 47.97,44.7 48.69,45.8 49.56,46.67 49.67,46.78 49.76,46.87 49.88,46.95 49.98,47.02 50.18,47.15 50.3,47.26 50.56,47.49 50.8,47.72 51.02,47.97 51.47,48.45 51.89,48.96 52.29,49.47 53.09,50.5 53.84,51.56 54.56,52.64 L 54.48,52.7 Z M 54.48,52.7" />
    </g>
    <g id="cgResistingHand-group88">
        <path id="cgResistingHand-bezier101" stroke="none" fill="rgb(71, 92, 113)" d="M 73.77,48.15 C 74.09,48.65 74.42,49.13 74.77,49.56 74.94,49.77 75.19,49.91 75.29,50.14 75.41,50.37 75.48,50.59 75.62,50.95 L 75.58,51.05 C 75.18,51.18 74.81,51 74.54,50.8 74.26,50.59 74.19,50.24 74.07,49.96 73.84,49.38 73.72,48.78 73.68,48.18 L 73.77,48.15 Z M 73.77,48.15" />
    </g>
    <g id="cgResistingHand-group89">
        <path id="cgResistingHand-bezier102" stroke="none" fill="rgb(71, 92, 113)" d="M 74.71,50.16 C 74.64,50.81 74.55,51.46 74.47,52.09 74.42,52.41 74.47,52.74 74.33,53.02 74.21,53.32 74.05,53.57 73.77,53.87 L 73.67,53.88 C 73.39,53.54 73.35,53.15 73.36,52.82 73.36,52.47 73.57,52.18 73.7,51.88 73.96,51.27 74.27,50.69 74.62,50.13 L 74.71,50.16 Z M 74.71,50.16" />
    </g>
    <g id="cgResistingHand-group90">
        <path id="cgResistingHand-bezier103" stroke="none" fill="rgb(71, 92, 113)" d="M 51.97,46.84 C 51.74,45.64 51.62,44.42 51.66,43.17 51.69,42.56 51.67,41.9 51.94,41.29 52.2,40.71 52.68,40.03 53.41,39.96 L 53.46,40.04 C 53.1,40.57 53.02,41.06 52.89,41.61 52.79,42.14 52.57,42.68 52.46,43.26 52.24,44.42 52.13,45.62 52.07,46.83 L 51.97,46.84 Z M 51.97,46.84" />
    </g>
    <g id="cgResistingHand-group91">
        <path id="cgResistingHand-bezier104" stroke="none" fill="rgb(71, 92, 113)" d="M 137.74,89.73 C 142.32,95.32 146.98,100.83 151.76,106.23 154.17,108.91 156.6,111.58 159.1,114.18 160.33,115.49 161.6,116.77 162.9,118.01 163.55,118.63 164.22,119.24 164.91,119.81 165.6,120.38 166.31,120.95 167.11,121.35 L 167.09,121.4 C 165.42,120.65 164.03,119.44 162.67,118.27 161.31,117.07 160.02,115.8 158.74,114.52 156.22,111.93 153.81,109.24 151.46,106.49 146.74,101.03 142.17,95.44 137.71,89.77 L 137.74,89.73 Z M 137.74,89.73" />
    </g>
    <g id="cgResistingHand-group92">
        <path id="cgResistingHand-bezier105" stroke="none" fill="rgb(71, 92, 113)" d="M 154.12,102.23 C 157.81,105.67 161.58,109.03 165.43,112.27 167.38,113.88 169.33,115.47 171.33,117 173.31,118.55 175.31,120.07 177.49,121.35 L 177.46,121.4 C 175.15,120.36 173.06,118.88 171.02,117.4 169.01,115.87 167.07,114.25 165.17,112.58 161.37,109.26 157.68,105.81 154.08,102.27 L 154.12,102.23 Z M 154.12,102.23" />
    </g>
    <g id="cgResistingHand-group93">
        <path id="cgResistingHand-bezier106" stroke="none" fill="rgb(71, 92, 113)" d="M 131.62,98.49 L 142.06,111.83 C 143.82,114.04 145.56,116.27 147.3,118.5 149.01,120.74 150.7,123.01 152.43,125.23 L 152.39,125.27 C 150.44,123.22 148.69,120.99 146.9,118.81 145.16,116.58 143.44,114.34 141.75,112.08 138.33,107.58 134.95,103.05 131.58,98.52 L 131.62,98.49 Z M 131.62,98.49" />
    </g>
    <g id="cgResistingHand-group94">
        <path id="cgResistingHand-bezier107" stroke="none" fill="rgb(71, 92, 113)" d="M 112.09,60.2 C 115.08,59.29 118.13,58.56 121.23,58.04 122.78,57.78 124.34,57.51 125.92,57.53 127.5,57.55 129.12,57.69 130.61,58.28 L 130.59,58.38 C 129.02,58.33 127.5,58.41 125.96,58.52 124.43,58.64 122.88,58.68 121.34,58.84 119.79,58.99 118.25,59.21 116.72,59.46 115.18,59.7 113.64,59.97 112.11,60.29 L 112.09,60.2 Z M 112.09,60.2" />
    </g>
</svg>
